<?xml version="1.0" encoding="UTF-8"?>
<svg id="Layer_2" data-name="Layer 2" xmlns="http://www.w3.org/2000/svg" viewBox="0 0 633.15 102.85">
  <defs>
    <style>
      .cls-1 {
        fill: #2f3133;
      }
    </style>
  </defs>
  <g id="Layer_1-2" data-name="Layer 1">
    <g>
      <path class="cls-1" d="M86.03,25.08h11.04l14.79,40.46,14.86-40.46h10.96v76.95h-12.09v-45.04l-10.51,28.6h-6.46l-10.51-28.6v45.04h-12.09V25.08Z"/>
      <path class="cls-1" d="M59.31,102.02V25.08h12.09v76.95h-12.09Z"/>
      <path class="cls-1" d="M152.32,102.02V25.08h32.36v10.89h-20.27v21.85h17.42v10.89h-17.42v22.37h20.19v10.89h-32.28v.07Z"/>
      <path class="cls-1" d="M223.11,102.02V25.08h12.09v66.06h20.19v10.89h-32.28Z"/>
      <path class="cls-1" d="M267.78,102.02V25.08h32.36v10.89h-20.19v21.85h17.34v10.89h-17.42v22.37h20.19v10.89h-32.28v.07Z"/>
      <path class="cls-1" d="M345.55,96.39c-3.23,3.68-7.58,6.46-14.94,6.46s-11.71-2.78-14.94-6.46c-5.71-6.46-5.63-17.72-5.63-32.88s-.08-26.35,5.63-32.88c3.23-3.68,7.58-6.46,14.94-6.46s11.71,2.78,14.94,6.46c5.71,6.46,5.63,17.72,5.63,32.88s.15,26.42-5.63,32.88ZM336.47,38.06c-1.05-1.73-2.93-2.93-5.86-2.93s-4.65,1.2-5.71,2.93c-2.25,3.68-2.7,11.49-2.7,25.52s.45,21.85,2.7,25.52c1.05,1.73,2.78,2.93,5.71,2.93s4.73-1.2,5.86-2.93c2.25-3.68,2.63-11.49,2.63-25.52s-.3-21.85-2.63-25.52Z"/>
      <path class="cls-1" d="M393.82,102.02l-18.17-46.02v46.02h-12.09V25.08h10.81l18.02,45.72V25.08h12.09v76.95h-10.66Z"/>
      <path class="cls-1" d="M477.45,95.64c-3.15,3.6-7.58,6.38-14.94,6.38h-19.59V25.08h19.59c7.36,0,11.79,2.78,14.94,6.38,5.71,6.38,5.63,17.27,5.63,32.13s.08,25.67-5.63,32.06ZM468.37,39.11c-1.2-1.8-3.23-3.15-6.16-3.15h-7.13v55.1h7.13c2.93,0,4.95-1.28,6.16-3.15,2.25-3.6,2.63-11.11,2.63-24.55s-.38-20.64-2.63-24.25Z"/>
      <path class="cls-1" d="M529.85,96.39c-3.23,3.68-7.58,6.46-14.94,6.46s-11.71-2.78-14.94-6.46c-5.71-6.46-5.63-17.72-5.63-32.88s-.07-26.35,5.63-32.88c3.23-3.68,7.58-6.46,14.94-6.46s11.71,2.78,14.94,6.46c5.71,6.46,5.63,17.72,5.63,32.88s.15,26.42-5.63,32.88ZM520.77,38.06c-1.05-1.73-2.93-2.93-5.86-2.93s-4.65,1.2-5.71,2.93c-2.25,3.68-2.7,11.49-2.7,25.52s.45,21.85,2.7,25.52c1.05,1.73,2.78,2.93,5.71,2.93s4.73-1.2,5.86-2.93c2.25-3.68,2.63-11.49,2.63-25.52s-.3-21.85-2.63-25.52Z"/>
      <path class="cls-1" d="M576.77,102.02l-10.59-31.53h-6.3v31.53h-12.09V25.08h19.44c14.04,0,19.67,6.83,19.67,22.67,0,9.53-1.95,16.29-9.01,20.12l11.48,34.16h-12.61ZM567.39,35.96h-7.43v23.57h7.43c6.45,0,7.43-5.41,7.43-11.79s-.97-11.79-7.43-11.79Z"/>
      <path class="cls-1" d="M600.8,102.02V25.08h32.35v10.89h-20.19v21.85h17.42v10.89h-17.42v22.37h20.19v10.89h-32.35v.07Z"/>
      <path class="cls-1" d="M171.84,15.01h-7.96l7.81-15.01h9.61l-9.46,15.01Z"/>
      <path class="cls-1" d="M30.63,25.08l18.69,76.95h-11.71l-3.38-13.96H15.09l-3.38,13.96H0L18.69,25.08h11.94ZM31.53,77.18l-6.91-28.38-6.91,28.38h13.81Z"/>
    </g>
  </g>
</svg>