<?xml version="1.0" encoding="UTF-8"?>
<svg id="Layer_2" data-name="Layer 2" xmlns="http://www.w3.org/2000/svg" viewBox="0 0 520.26 173.12">
  <defs>
    <style>
      .cls-1 {
        fill: #2f3133;
      }
    </style>
  </defs>
  <g id="Layer_1-2" data-name="Layer 1">
    <g>
      <path class="cls-1" d="M133.92,0c-28.61.02-60.12,17.51-79.89,34.08l1.56,2.27C86.29,14.83,128.91.82,140.66,21.82c6.2,11.08-4.33,33.45-19.16,51.13,3.55-7.81,1.21-22.8-19.47-22.8-34.38,0-102.03,45.55-102.03,92.13,0,18.67,12.94,30.84,34.27,30.84,57.08,0,134.52-93.58,134.52-140.59,0-16.6-9.56-32.53-34.87-32.53M53.81,122.79c-9.88,0-14.63-7.59-12.16-16.38,5.12-18.21,38.02-45.19,60.42-45.19,16.35,0,15.11,14.62,5.54,27.09l-5.31,5.87c-18.99,18.65-36.62,28.61-48.5,28.61"/>
      <path class="cls-1" d="M260.23,49.4c-5.26-6.46-13.76-9.35-19.85-9.35h-33.39l-5.67,21.14h31.49l3.02.33s2.9.33,4.48,2.48c1.3,1.79,1.49,4.46.56,7.95l-1.49,5.56h-19.83c-17.08,0-40.89,12.25-46.19,32.04-2.64,9.87-.33,18.42,4.8,24.7,5.09,6.24,14.68,9.67,25.05,9.67h41.72l19.02-70.98c3.16-11.82-.26-19.33-3.71-23.55M207.41,122.78c-3.32,0-6.08-1.17-7.81-3.28-1.81-2.22-2.35-5.36-1.48-8.61,1.89-7.06,9.49-12.58,17.3-12.58h18.37l-6.55,24.46h-19.83Z"/>
      <path class="cls-1" d="M489.6,40.05c-9.03,0-17.42,2.68-24.25,7.73-6.89,5.11-10.7,11.24-12.97,19.69-4.91,18.34,9.5,27.18,21.08,33.45,8.3,4.5,15.47,8.38,13.93,14.12-1.1,4.13-2.9,7.73-13.11,7.73h-31.18l-5.66,21.14h34.51c9.26,0,17.8-1.93,24.68-7.2,6.9-5.31,10.78-12.69,13.2-21.71,2.3-8.58.74-16.76-4.77-22.89-4.6-5.12-11.22-8.69-17.06-11.84-7.47-4.02-14.51-7.82-13.27-12.42.75-2.78,3.52-6.67,9.55-6.67h30.31l5.67-21.14h-30.66Z"/>
      <path class="cls-1" d="M308.65,40.05c-9.03,0-17.43,2.68-24.26,7.73-6.89,5.11-10.69,11.24-12.97,19.69-4.91,18.34,9.5,27.18,21.08,33.45,8.3,4.5,15.47,8.38,13.94,14.12-1.11,4.13-2.91,7.73-13.12,7.73h-31.18l-5.67,21.14h34.51c9.27,0,17.8-1.93,24.68-7.2,6.9-5.31,10.78-12.69,13.2-21.71,2.3-8.58.74-16.76-4.76-22.89-4.61-5.12-11.23-8.69-17.07-11.84-7.46-4.02-14.51-7.82-13.27-12.42.74-2.78,3.52-6.67,9.55-6.67h30.31l5.68-21.14h-30.65Z"/>
      <polygon class="cls-1" points="355.74 40.05 328.67 143.92 351.52 143.92 378.59 40.05 355.74 40.05"/>
      <path class="cls-1" d="M439.43,40.05c-40.26.15-61.32,26.96-68.01,51.93-7.93,29.61,7.84,51.94,36.67,51.94h19.33l5.66-21.14h-19.32c-10.8,0-25.63-8.5-19.66-30.8,4.75-17.73,22.03-30.8,41.01-30.8h12.26l5.67-21.14h-13.61Z"/>
    </g>
  </g>
</svg>