<?xml version="1.0" encoding="UTF-8"?>
<svg id="Layer_2" data-name="Layer 2" xmlns="http://www.w3.org/2000/svg" viewBox="0 0 418.53 65.3">
  <defs>
    <style>
      .cls-1 {
        fill: #2f3133;
      }
    </style>
  </defs>
  <g id="Layer_1-2" data-name="Layer 1">
    <g>
      <path class="cls-1" d="M23.71,18.52h14.63l5.19,13.15h-5.09l-9.08-11.76h-5.28c-7.97,0-16.12,6.76-16.12,18.52s8.61,19.36,18.99,19.36c9.35,0,17.32-6.48,18.89-15.19h.28c-.18,12.32-10.37,22.69-23.06,22.69S0,55.29,0,41.86s10.56-23.34,23.71-23.34Z"/>
      <path class="cls-1" d="M60.11,18.52h17.6c6.58,0,11.95,5.19,11.95,11.39v31.68l6.67,2.96v.28h-15.65v-13.71c-1.48,7.22-8.24,14.17-16.3,14.17s-13.99-4.26-13.99-11.95c0-6.3,4.26-10.19,8.98-12.04l14.54-5.65c4.26-1.67,6.95-4.54,6.95-8.52s-3.33-7.32-8.24-7.32h-7.87l-4.72,11.86h-10.1l10.19-13.15ZM74.37,36.95l-7.87,3.06c-5.09,1.95-7.5,5.65-7.5,9.63,0,6.11,4.08,8.43,9.35,8.43,6.67,0,11.95-4.54,11.95-12.04v-13.15c-1.3,1.67-3.33,3.06-5.93,4.08Z"/>
      <path class="cls-1" d="M97.06,64.55l6.67-2.96V21.77l-6.67-2.96v-.28h16.02v12.41c1.76-6.76,7.41-12.87,15.74-12.87,10,0,14.91,6.58,14.91,17.5v26.03l6.67,2.96v.28h-22.69v-.28l6.67-2.96v-25.28c0-7.69-1.95-13.06-9.45-13.06-8.06,0-11.86,8.71-11.86,15v23.34l6.67,2.96v.28h-22.69v-.28Z"/>
      <path class="cls-1" d="M151.05,64.55l6.67-2.96V21.77l-6.67-2.96v-.28h16.02v12.41c1.76-6.76,7.41-12.87,15.74-12.87,10,0,14.91,6.58,14.91,17.5v26.03l6.67,2.96v.28h-22.69v-.28l6.67-2.96v-25.28c0-7.69-1.95-13.06-9.45-13.06-8.06,0-11.86,8.71-11.86,15v23.34l6.67,2.96v.28h-22.69v-.28Z"/>
      <path class="cls-1" d="M215.98,18.52h17.6c6.58,0,11.95,5.19,11.95,11.39v31.68l6.67,2.96v.28h-15.65v-13.71c-1.48,7.22-8.24,14.17-16.3,14.17s-13.99-4.26-13.99-11.95c0-6.3,4.26-10.19,8.98-12.04l14.54-5.65c4.26-1.67,6.95-4.54,6.95-8.52s-3.33-7.32-8.24-7.32h-7.87l-4.72,11.86h-10.1l10.19-13.15ZM230.24,36.95l-7.87,3.06c-5.09,1.95-7.5,5.65-7.5,9.63,0,6.11,4.08,8.43,9.35,8.43,6.67,0,11.95-4.54,11.95-12.04v-13.15c-1.3,1.67-3.33,3.06-5.93,4.08Z"/>
      <path class="cls-1" d="M252.56,64.55l6.67-2.96V3.24l-6.67-2.96v-.28h16.02v61.59l6.67,2.96v.28h-22.69v-.28Z"/>
      <path class="cls-1" d="M320.91,61.59l6.67,2.96v.28h-16.02v-12.41c-1.76,6.76-7.41,12.87-15.74,12.87-10,0-14.91-6.58-14.91-17.51v-26.03l-6.67-2.96v-.28h16.02v28.53c0,7.69,1.94,13.06,9.45,13.06,8.06,0,11.86-8.71,11.86-15v-23.34l-6.67-2.96v-.28h16.02v43.07Z"/>
      <path class="cls-1" d="M324.34,18.52h23.71v.28l-6.48,2.87,11.76,16.49,10.84-13.61-9.54-5.84v-.18h20.75v.18l-9.08,5.84-11.95,15,15.74,22.14,6.48,2.87v.28h-23.71v-.28l6.58-2.87-11.48-16.12-10.56,13.24,9.54,5.83v.19h-20.75v-.19l9.08-5.83,11.67-14.63-16.02-22.51-6.58-2.87v-.28Z"/>
      <path class="cls-1" d="M396.12,18.06c9.72,0,18.52,5.37,21.4,14.36h-36.4c-.46,1.85-.74,3.89-.74,6.02,0,11.39,8.61,19.36,18.99,19.36,9.35,0,17.32-6.48,18.89-15.19h.28c-.19,12.32-10.37,22.69-23.06,22.69s-23.06-10-23.06-23.43,10.56-23.8,23.71-23.8ZM408.34,31.03c-2.04-7.04-6.48-11.58-12.41-11.58s-11.95,4.26-14.45,11.58h26.86Z"/>
    </g>
  </g>
</svg>