<?xml version="1.0" encoding="UTF-8"?>
<svg id="Layer_2" data-name="Layer 2" xmlns="http://www.w3.org/2000/svg" viewBox="0 0 429.17 171.99">
  <defs>
    <style>
      .cls-1 {
        fill: #2f3133;
      }
    </style>
  </defs>
  <g id="Layer_1-2" data-name="Layer 1">
    <g id="g4">
      <path id="path1" class="cls-1" d="M271.7,91.21c-19.5.64-31.62,4.16-31.62,17,0,8.32,6.63,17.33,23.46,17.33,22.56,0,34.61-12.3,34.61-32.47v-2.22c-7.91,0-17.67.07-26.45.36h0ZM319.66,117.87c0,6.26.18,12.44.73,18h-20.01c-.53-4.58-.73-9.13-.73-13.55-10.82,13.3-23.68,17.12-41.53,17.12-26.47,0-40.64-13.99-40.64-30.17,0-23.44,19.28-31.7,52.74-32.47,9.15-.21,19.43-.24,27.93-.24v-2.29c0-15.69-10.06-22.14-27.5-22.14-12.94,0-22.48,5.36-23.47,14.61h-22.6c2.39-23.08,26.64-28.91,47.96-28.91,25.54,0,47.11,9.09,47.11,36.1v43.95Z"/>
      <path id="path2" class="cls-1" d="M85.68,79.77c-.83-20.12-15.36-27.65-30.88-27.65-16.74,0-30.1,8.47-32.44,27.65h63.31ZM21.9,94.07c1.16,19.52,14.62,31.07,33.13,31.07,12.82,0,24.23-5.23,28.05-16.59h22.18c-4.31,23.06-28.82,30.89-49.91,30.89-38.35,0-55.35-21.12-55.35-49.61,0-31.36,17.58-52.01,55.7-52.01,30.34,0,52.57,15.88,52.57,50.54v5.71H21.9Z"/>
      <path id="path3" class="cls-1" d="M163.44,124.73c19.99,0,33.66-14.39,33.66-36.1s-13.68-36.1-33.66-36.1-33.67,14.39-33.67,36.1,13.79,36.1,33.67,36.1h0ZM108.27,0h21.5v54.02c10.54-12.56,25.06-16.2,39.35-16.2,23.96,0,50.58,16.17,50.58,51.08,0,29.24-21.17,50.53-50.98,50.53-15.6,0-30.29-5.6-39.35-16.69,0,4.43-.25,8.89-.73,13.12h-21.1c.37-6.83.73-15.33.73-22.21V0Z"/>
      <path id="path4" class="cls-1" d="M429.17,41.4l-66.5,130.59h-24.08l19.12-36.26-50.04-94.33h25.16l36.82,73.7,36.72-73.7h22.8Z"/>
    </g>
  </g>
</svg>