<?xml version="1.0" encoding="UTF-8"?>
<svg id="Layer_2" data-name="Layer 2" xmlns="http://www.w3.org/2000/svg" viewBox="0 0 561.85 107.87">
  <defs>
    <style>
      .cls-1 {
        fill: #2f3133;
      }
    </style>
  </defs>
  <g id="Layer_1-2" data-name="Layer 1">
    <g id="Lager_2" data-name="Lager 2">
      <g id="Layer_1-3" data-name="Layer 1">
        <path class="cls-1" d="M251.32,99.01c2.12,3.17,4.56,6.08,7.34,8.8h-74.67c-.93-4.96-2.98-9.66-6.02-13.76-3.24-4.89-20.3-30.75-20.3-30.75v35.71c-.2,2.98.26,6.02,1.45,8.8h-62.17c1.19-2.78,1.72-5.75,1.45-8.8V14.16c.2-2.98-.26-6.02-1.45-8.8h62.17c-1.19,2.78-1.72,5.75-1.45,8.8v37.04s19.91-25.86,24.34-31.94c3.64-4.03,6.35-8.73,7.94-13.89h64.68c-5.09,3.77-9.59,8.2-13.43,13.23l-23.81,28.9,33.93,51.52ZM270.76,14.16v84.85c.2,2.98-.26,6.02-1.45,8.8h120.04v-28.44c-2.78,1.19-5.75,1.72-8.8,1.45h-50.46v-13.49h48.48v-21.56h-48.48v-13.43h50.46c2.98-.2,6.02.26,8.8,1.39V5.36h-119.97c1.19,2.84,1.72,5.82,1.39,8.8h0ZM555.67,98.94c1.06,3.24,2.71,6.22,4.89,8.8h-65.08c.07-3.04-.6-6.08-1.98-8.8,0,0-.99-2.38-2.31-5.89l-.6-1.52h-37.5l-.53,1.52s-1.06,2.91-2.12,5.89c-1.26,2.71-1.85,5.75-1.65,8.8h-51.39c2.18-2.58,3.84-5.56,4.89-8.8,1.65-4.89,28.37-78.24,30.75-84.85,1.26-2.71,1.85-5.75,1.79-8.8h86.51c-.26,3.04.4,6.08,1.92,8.8,2.51,6.61,30.29,79.16,32.41,84.85h0ZM482.33,70.11c-4.89-12.3-8.66-22.68-9.06-23.74-.79-2.18-1.45-4.43-2.05-6.75-.4,2.25-.99,4.5-1.79,6.75-.33.99-4.1,11.38-8.6,23.74h21.49ZM67.59,5.43H0c1.19,2.78,1.72,5.75,1.45,8.8v84.85c.2,2.98-.26,6.02-1.45,8.8h67.59c-1.19-2.78-1.72-5.75-1.45-8.8V14.16c-.26-2.98.26-5.95,1.45-8.73ZM534.91,13.43c-.26-7.21,5.36-13.23,12.57-13.43h.93c7.27-.13,13.29,5.69,13.43,12.96v.46c.46,7.47-5.22,13.82-12.63,14.29-7.47.46-13.82-5.22-14.29-12.63-.07-.53-.07-1.06,0-1.65ZM537.55,13.43c-.4,5.95,4.1,11.11,10.05,11.51,5.95.4,11.11-4.1,11.51-10.05v-1.45c.13-5.82-4.56-10.65-10.38-10.78h-.4c-5.75-.2-10.58,4.3-10.85,10.05.07.26.07.53.07.73ZM545.69,21.56h-2.45V5.43h6.08c2.78.13,4.89,2.45,4.89,5.22.07,2.05-.99,3.9-2.84,4.89l3.51,6.22h-2.71l-3.24-5.62h-3.31v5.42h.07ZM545.69,13.43h3.24c1.59,0,2.84-1.26,2.84-2.84s-1.26-2.84-2.84-2.84h-3.24v5.69Z"/>
      </g>
    </g>
  </g>
</svg>