<?xml version="1.0" encoding="UTF-8"?>
<svg id="Layer_2" data-name="Layer 2" xmlns="http://www.w3.org/2000/svg" viewBox="0 0 434.43 191.34">
  <defs>
    <style>
      .cls-1 {
        fill: #2f3133;
      }
    </style>
  </defs>
  <g id="Layer_1-2" data-name="Layer 1">
    <g>
      <path class="cls-1" d="M384.83,109.85h23.27v21.65c-4.27,1.63-12.65,3.26-20.6,3.26-25.74,0-34.3-13.07-34.3-39.6s8.15-40.23,33.87-40.23c14.33,0,22.46,4.5,29.2,13.07l17.78-16.34c-10.86-15.48-29.81-20.18-47.61-20.18-40.01-.02-61.04,21.81-61.04,63.46s19.01,63.91,60.83,63.91c19.2,0,37.97-4.89,48.2-12.05v-60.03h-49.6v23.07ZM262.75,132.93h59.23v24.09h-87.81V33.3h28.58v99.62Z"/>
      <path class="cls-1" d="M163.32,28.02c-37.36-37.36-97.94-37.37-135.3,0-37.36,37.36-37.36,97.94,0,135.3,37.36,37.36,97.94,37.37,135.3,0h0c37.36-37.36,37.36-97.94,0-135.3ZM119.09,135.93h-19.55v.05h-7.25V55.27h7.23v73.46h19.55l.02,7.21ZM96.1,174.27c-43.62,0-78.99-35.16-78.99-78.57S52.47,17.12,96.09,17.12c1.15,0,2.3.02,3.44.07v7.15c-1.14-.05-2.28-.08-3.43-.08-39.65,0-71.8,31.98-71.8,71.42s32.15,71.43,71.8,71.43,70.06-30.26,71.73-68.21v-.2s-48.65,0-48.65,0v-7.21h55.78c.08,1.4.11,2.79.11,4.2,0,43.4-35.37,78.57-78.99,78.57ZM66.65,77.01c-1.45,0-2.89-.28-4.24-.83-1.34-.55-2.57-1.37-3.6-2.39-1.03-1.03-1.85-2.24-2.41-3.59-.56-1.34-.85-2.78-.85-4.23,0-2.18.65-4.31,1.86-6.13,1.21-1.82,2.93-3.23,4.95-4.07,2.01-.84,4.23-1.06,6.37-.64,2.14.42,4.11,1.47,5.65,3.01,1.55,1.54,2.6,3.5,3.03,5.64.43,2.14.22,4.36-.61,6.38-.83,2.02-2.23,3.75-4.04,4.97-1.81,1.22-3.94,1.88-6.12,1.89h0Z"/>
    </g>
  </g>
</svg>