<?xml version="1.0" encoding="UTF-8"?>
<svg id="Layer_2" data-name="Layer 2" xmlns="http://www.w3.org/2000/svg" viewBox="0 0 587.75 71.98">
  <defs>
    <style>
      .cls-1 {
        fill: #2f3133;
      }
    </style>
  </defs>
  <g id="Layer_1-2" data-name="Layer 1">
    <g>
      <path class="cls-1" d="M15.4,4.23c1.5-.53,4.19-1.03,8.05-1.5,4.16-.42,7.52-.27,10.06.46,3.55.95,6.54,2.58,8.98,4.88,2.44,2.3,3.82,4.77,4.14,7.42.27,2.22-.25,4.14-1.58,5.78-1.32,1.64-3.18,2.69-5.57,3.15-.19.02-.46.08-.79.16-.33.09-.55.13-.64.14-.97.12-2.58-.24-4.84-1.1-2.88-1.12-5-1.6-6.35-1.43-.97.12-1.79.57-2.48,1.34-.69.78-.99,1.51-.91,2.19.21,1.71,2.7,3.22,7.47,4.54,2.65.8,5.35,2.1,8.12,3.88,2.77,1.78,4.8,3.55,6.09,5.29,1.06,1.43,1.79,3.81,2.2,7.14.58,4.78-.07,9.06-1.96,12.84-1.89,3.78-4.71,6.81-8.45,9.09-1.65.98-2.97,1.62-3.96,1.91-.99.29-3.04.63-6.13,1.01-3.28.4-5.37.59-6.25.57-.89-.02-2.25-.31-4.08-.86-2.45-.74-4.46-1.58-6.05-2.51-4.14-2.61-6.52-6.43-7.14-11.46-.45-3.67.47-6.21,2.75-7.61,1.11-.57,2-.89,2.67-.98,1.64-.2,3.68.42,6.11,1.85,3.69,2.14,6.36,3.12,8.01,2.92.97-.12,1.97-.72,3.02-1.8,1.05-1.08,1.65-2.15,1.81-3.21.13-.54.15-1.23.04-2.08-.34-2.81-3.11-4.6-8.3-5.35-7.59-1.15-12.83-3.84-15.7-8.08C1.69,29.67.48,26.62.12,23.63c-.53-4.35.7-8.31,3.7-11.88,2.83-3.29,6.69-5.8,11.58-7.52"/>
      <path class="cls-1" d="M55.64,2.33c1.29-.69,2.92-1.03,4.9-1.03,1.78,0,3.36.3,4.75.9,4.16,1.72,6.24,5.67,6.24,11.86,0,1.8-.15,3.74-.44,5.8-.2,2.06-.3,3.44-.3,4.13,0,2.06.45,3.09,1.34,3.09.5,0,1.29-.39,2.38-1.16.89-.69,1.53-1.52,1.93-2.51.45-1.14.79-2.09.83-3.32.05-1.33-.05-2.68.31-3.98.28-1.03,1.17-2.1,2.19-2.5,1.67-.65,3.06.78,3.94,2.01.99,1.37,1.68,3.09,2.08,5.16.4,2.24.72,3.63.97,4.19.25.56.62.84,1.11.84.69,0,1.29-.39,1.78-1.16.4-.43.59-1.12.59-2.06,0-.86-.15-2.71-.44-5.54-.3-2.32-.45-4.26-.45-5.8,0-2.66.42-4.66,1.26-5.99.84-1.33,2.25-2.38,4.24-3.16,1.39-.52,3.12-.77,5.2-.77,5.07,0,8.09,1.69,8.19,7.13.03,1.7-.36,3.38-.64,5.06-2.69,15.76,1.26,32.28-4.28,47.75-1.39,3.87-3.67,6.49-6.83,7.86-1.59.69-3.52,1.03-5.8,1.03-1.98,0-3.56-.26-4.75-.77-1.29-.6-2.21-1.55-2.75-2.84-.55-1.29-.97-3.44-1.26-6.45-.5-4.81-1.04-7.22-1.63-7.22-.99,0-1.84,2.15-2.53,6.45-.2,1.72-.94,3.5-2.23,5.35-1.29,1.85-2.73,3.24-4.31,4.19-4.22,2.52-9.21,3.2-11.32-1.84-4.93-11.74-2.12-25.33-5.71-37.53-1.03-3.51-2.58-6.85-3.47-10.4-1.38-5.53-.8-13.72,4.9-16.76"/>
      <path class="cls-1" d="M114.69,8.28c2.66-3.96,8.25-6.35,16.78-7.15.29-.03.82-.05,1.61-.09.78-.03,1.31-.06,1.6-.09,7.59-.37,12.94.06,16.03,1.28,3.1,1.22,4.81,3.59,5.14,7.09.39,4.11-.57,6.92-2.87,8.43-1.01.7-2.29,1.12-3.84,1.27-1.55.15-3.91.02-7.08-.37-2.76-.26-4.48-.36-5.16-.29-.1,0-.24.07-.42.17l-.29.03c-.9.08-2.21,1.22-2.62,2-.57,1.07-.38,2.27-.28,3.43.11,1.21.29,2.57,1.27,3.29.51.37,1.15.5,1.77.58,2.93.38,2.84.44,5.76.11l2.91-.27c2.28-.21,5.48-.42,6.68,2.06.38.79.48,1.68.56,2.55.13,1.47.45,3.55-.41,4.8-.9,1.32-2.57,1.95-4.03,2.42-3.08,1-3.13.94-6.31,1.42-2.66.4-5.6-.6-7.92,1.28-1.27,1.03-1.23,3.84,0,4.84.72.59,1.68.82,2.6.95,3.53.51,7.18-.11,10.72-.55,1.13-.14,2.42-.52,3.56-.43.99.08,1.65.65,2.4,1.34,1.55,1.41,2.75,3.24,3.23,5.29.23,1.01.29,2.05.33,3.09.15,3.32.04,6.71-2.81,8.95-1.74,1.37-4,1.86-6.17,2.31-3.57.74-7.11,1.65-10.76,1.87-2.88.18-5.76.27-8.64.32-1.12.02-2.24.15-3.35.24-2.82,0-4.96-.11-7.39-1.58-.63-.38-1.27-.77-1.81-1.27-.63-.59-1.11-1.32-1.54-2.08-3.67-6.47-2.17-12.74-1.8-19.71.38-7.11.53-14.21-.04-21.32-.27-3.39-.59-6.83.21-10.18.63-2.65,1.42-4.66,2.36-6.05"/>
      <path class="cls-1" d="M164.58,4.49c.67-.43,1.41-.76,2.16-.98,2.15-.64,4.45-.55,6.69-.46,3.08.13,6.16.25,9.24.38,2.64.11,5.39.53,8,.44,4.06-.15,9.26-1.76,12.59,1.45,2.81,2.71,3.13,6.74,1,10-1.52,2.31-4.51,3.16-7.28,3.32-1.14.06-2.28.04-3.42.01-2.56-.06-5.11-.5-7.66-.1-3.88.61-4.41,3.11-2.96,6.54.16.37.34.75.67.98.33.23.74.28,1.14.32,2.41.24,4.83.4,7.26.49,2.38.08,4.46.48,6.79,1.02.77.17,1.55.36,2.21.78,1.07.7,1.65,1.94,2.05,3.16.59,1.79.9,3.86-.07,5.48-.68,1.13-1.89,1.87-3.16,2.24-1.27.37-2.61.43-3.93.49-4.97.24-9.93.66-14.89,1.07-.22.02-.45.04-.65.14-.3.15-.5.44-.64.74-.71,1.46-.52,3.18-.31,4.79.12.9.27,1.86.92,2.49.58.56,1.41.72,2.21.82,3.55.48,7.15.33,10.72.21,3.33-.11,6.94-.42,10.25,0,1.8.23,3.7,1.17,4.25,2.9.2.63.21,1.3.21,1.96,0,2.02.01,4.03.02,6.05,0,.96,0,1.96-.46,2.8-.51.93-1.47,1.5-2.39,2.02-3.34,1.91-7.2,2.43-11,2.69-8.22.56-16.46,1.45-24.7.77-.89-.07-1.62-.42-2.47-.57-1.08-.2-2.14-.06-3.22-.39-1.22-.38-2.38-1.2-2.83-2.4-.35-.9-.26-1.9-.19-2.87.16-2.24.22-4.49-.03-6.72-.37-3.33-1.42-6.62-1.19-9.97.08-1.16.32-2.31.48-3.47.7-4.94.11-9.94,0-14.9-.05-2.07-.05-4.04-.13-6.13-.09-2.31.13-4.64.66-6.89.33-1.42.79-2.82.97-4.27.13-1.04.12-2.12.43-3.12.43-1.4,1.43-2.52,2.67-3.31"/>
      <path class="cls-1" d="M293.16,2.46c1.14-.43,3.03-.64,5.68-.64,2.84,0,4.97.22,6.4.64,3.41.86,6.92,2.45,10.52,4.77,3.6,2.32,5.83,4.38,6.68,6.19.47,1.12.71,2.19.71,3.22,0,2.58-1.09,4.73-3.27,6.45-1.14.86-2.79,1.29-4.97,1.29s-4.36-.17-6.82-.52c-1.42-.26-2.65-.39-3.7-.39-2.09,0-3.58.56-4.48,1.68-.9,1.12-1.45,2.97-1.64,5.54v1.42c0,4.73,1,7.56,2.98,8.51.57.26,1.04.39,1.42.39.47,0,1.56-.3,3.27-.9,3.7-1.2,6.35-1.8,7.96-1.8,1.9,0,3.65.69,5.26,2.06,2.65,2.06,3.98,6.06,3.98,11.99,0,4.21-.38,7.31-1.14,9.28-.76,1.98-2.23,3.65-4.41,5.03-2.18,1.46-4.29,2.43-6.33,2.9-2.04.47-4.95.71-8.74.71-4.83,0-8.15-.34-9.95-1.03-3.97-1.42-7.24-4.36-10.15-7.41-1.51-1.58-2.97-3.25-4.01-5.19-1-1.86-1.58-3.93-2-6.01-1.59-7.74-1.12-15.76-.38-23.63.3-3.18.65-6.39,1.65-9.42,1.26-3.82,3.82-6.35,6.25-9.32,2.36-2.89,5.76-4.69,9.22-5.8"/>
      <path class="cls-1" d="M363.33,1.17c.19,0,.46-.02.8-.06.34-.04.61-.06.8-.06,3.89,0,6.91,1.55,9.05,4.64.78,1.12,1.17,2.96,1.17,5.54,0,2.24-.29,4.99-.88,8.25-.88,4.47-1.31,9.07-1.31,13.79,0,3.61.34,7.61,1.02,11.99.78,4.12,1.17,8.08,1.17,11.86,0,8.68-3.21,13.02-9.64,13.02-3.5,0-6.08-1.29-7.74-3.87-.78-1.12-1.22-4.3-1.31-9.54-.1-8.51-1.07-13.62-2.92-15.34-.78-.69-3.18-1.03-3.57-1.03-.78,0-1.51.69-2.19,2.06-.78,1.29-1.22,5.54-1.31,12.76-.1,7.22-.49,11.26-1.17,12.12-1.36,1.89-4.09,2.88-8.18,2.96-2.09.04-4.28-.24-6.24-1-1.89-.74-3.18-2.35-3.53-4.39-.19-1.07-.1-2.16.05-3.24.14-.99.33-1.98.52-2.96.38-1.96.79-3.92.8-5.92.01-1.98-.3-3.97-.48-5.94-.38-4.13-.62-8.31-.06-12.44.31-2.3.87-4.56,1.05-6.88.37-4.89-.98-9.72-1.98-14.52-.3-1.44-.57-2.91-.42-4.37.23-2.21,2.28-5.26,4.45-6.03.97-.34,2.63-.52,4.96-.52,5.06,0,8.52,1.63,10.37,4.9.88,1.46,1.41,4.9,1.61,10.31.19,5.33.44,8.12.73,8.38.29.43.8.65,1.53.65s3.01-.17,3.21-.52c.19-.34.58-3.48,1.17-9.41.39-6.01,1.12-9.97,2.19-11.86,1.07-1.89,3.16-3.01,6.28-3.35"/>
      <path class="cls-1" d="M434.49,6.88c.9-.28,1.81-.51,2.74-.73,1.63-.39,3.25-.38,4.9-.65,3.8-.62,7.63-1.03,11.48-1.07,2.88-.03,5.75.07,8.63,0,3.27-.07,6.73-.92,8.78,2.4.92,1.49,1.23,3.27,1.33,5.02.08,1.32.04,2.7-.55,3.88-.89,1.79-2.36,1.87-4.11,1.98-3.32.19-4.81.39-8.13.58-1.87.11-3.79.23-5.49,1.02-.65.3-1.25.69-1.82,1.11-1.16.86-2.32,2.09-2.15,3.52.12,1.08,1.01,1.96,2.01,2.38,1.01.42,2.12.48,3.21.54,3.04.15,4.21-.49,7.25-.34.71.03,1.42.07,2.11.2,2.41.47,2.56,2.19,3.54,4.42.44,1,.92,2.48.74,3.59-.22,1.4-.32,3.58-1.55,4.19-1.07.54-2.3.7-3.49.76-2.27.13-6.78.76-9.04,1.01-1.46.17-3.89.31-5.03,1.33-1.87,1.65-1.15,4.24.41,5.79.38.38.8.74,1.31.94.56.23,1.18.25,1.78.26,3.05.09,6.12.1,9.17.26,2.66.14,5.38.95,7.8,2.04,1.31.59,2.24,1.54,2.8,2.87.25.6.37,1.25.46,1.9.2,1.41.3,2.83.3,4.25,0,1.16.18,2.33-.08,3.46-.23,1-.54,2.02-1.22,2.79-1.02,1.15-2.65,1.54-4.13,1.46-1.86-.1-3.75.29-5.6.41-2.33.15-4.67-.15-6.98.08-2.35.24-4.7.41-7.06.52-3.03.14-6.05.58-9.08.39-1.25-.08-2.46-.39-3.71-.56-1.23-.17-2.52-.57-3.24-1.66-.77-1.17-.59-2.69-.68-4.09-.09-1.6-.56-3.15-.93-4.71-1.1-4.67-1.43-9.61-1.12-14.38.15-2.35-.19-4.83-.33-7.19-.15-2.5-.29-5-.44-7.49-.07-1.3-.15-2.61-.17-3.91-.01-1.18.02-2.37.05-3.55.08-2.71.15-5.43.23-8.14.05-1.8.18-3.78,1.45-5.05.54-.54,1.23-.89,1.92-1.2.57-.25,1.15-.46,1.73-.64"/>
      <path class="cls-1" d="M480.39,2.43c.42-.21.77-.51,1.21-.7,1.03-.43,2.18-.57,3.29-.57,1.55,0,3.16.6,4.82,1.8,2.43,1.98,4.18,5.09,5.26,9.35,1.07,4.25,1.73,7.97,1.97,11.15.24,3.18.66,4.77,1.24,4.77,1.07,0,3.02-3.99,5.84-11.99,1.75-4.81,3.07-8.04,3.94-9.67,1.85-3.26,4.38-4.9,7.59-4.9,2.04,0,3.77.75,5.18,2.26,1.41,1.5,2.12,3.5,2.12,5.99,0,4.81-2.68,10.92-8.03,18.3-2.24,3.27-3.36,5.5-3.36,6.7,0,1.46,1.17,3.87,3.5,7.22,1.17,1.68,2.36,3.34,3.42,5.1,1.09,1.82,1.86,3.76,2.84,5.63,1.4,2.69,2.06,5.55,2.99,8.4.76,2.34-.46,5.53-1.72,7.53-.39.62-.85,1.22-1.46,1.63-.52.35-1.11.55-1.71.73-2.93.87-6.64.88-9.39-.67-2.12-1.2-3.4-3.69-4.27-5.87-1-2.5-1.62-5.17-2.22-7.79-2.04-8.68-3.89-13.62-5.55-14.83l-.59-.26c-.49,0-.83,2.62-1.02,7.86-.29,7.05-1.41,12.2-3.36,15.47-1.3,2.19-3.19,4.24-5.78,4.77-2.67.54-5.63.32-7.89-1.32-.76-.55-1.45-1.27-1.72-2.17-.15-.52-.16-1.08-.16-1.63-.04-4.88-.07-9.76-.11-14.64-.03-4.55-.2-9.06-.34-13.62-.07-2.25-.11-4.51-.05-6.76.12-4.43.62-8.87.23-13.29-.25-2.86-.87-5.72-.54-8.56.21-1.83.99-3.87,2.61-4.91.38-.25.81-.33,1.24-.54"/>
      <path class="cls-1" d="M532.71,7.78c.6-.47,1.23-.91,1.87-1.34,1.9-1.28,3.87-2.49,6.04-3.22,1.64-.56,3.35-.83,5.07-1.05,3.4-.43,6.74-.5,10.15-.5,2.11,0,4.49,0,6.45.88,3.01,1.35,4.9,3.43,5.67,6.22.12.42.21,1.02.26,1.79.13,2.06-.43,3.86-1.7,5.41-1,1.19-2.14,2.01-3.42,2.49-1.29.47-3.38.89-6.28,1.25-2.72.26-4.55.6-5.5,1-.95.41-1.4,1.04-1.34,1.9.06.86.52,1.65,1.4,2.37.88.72,2.79,2.01,5.74,3.89,5.09,3.2,8.58,5.9,10.48,8.1,1.9,2.2,2.95,4.81,3.14,7.81.17,2.57-.27,4.88-1.3,6.93-2.5,5.16-6.54,9.71-12.13,13.65-5.6,3.94-11.07,6.08-16.41,6.43l-1.17.08c-3.61-.02-6.72-1-9.34-2.94-2.61-1.94-4.01-4.32-4.2-7.15-.03-.43.03-1.08.17-1.95.27-1.83,1.94-3.96,5-6.4,3.06-2.44,6.21-4.15,9.47-5.14,3.34-1.08,5.63-2.69,6.85-4.84.7-1.16.68-2.28-.07-3.35-1.1-1.68-3.2-2.66-4.95-3.48-2.43-1.15-4.79-2.51-7.17-3.79-1.51-.82-3.04-1.65-4.28-2.83-2.02-1.93-4.12-4.5-4.5-7.29-.31-2.25-.6-4.6.14-6.75.8-2.32,2.66-5.05,4.35-6.81.47-.48.97-.93,1.5-1.34"/>
      <path class="cls-1" d="M412.86,3.15c-.77-.04-1.54-.06-2.3-.05-.63,0-1.26.11-1.89.17-1.06.1-2.11.18-3.17.25-1.83.12-3.66.18-5.49.22-2.43.06-4.86.11-7.28.2-1.98.07-3.99.16-5.87.78-1.41.46-2.69,1.24-3.7,2.33-1.16,1.26-1.37,2.27-1.68,3.95-.71,3.87-1.34,7.76-1.81,11.68-.92,7.7-1.21,15.52-.17,23.22.26,1.96.61,3.92.78,5.9.29,3.44.01,6.96.85,10.31.78,3.12,2.77,6.06,5.91,7.11,1.9.64,4.18.47,6.17.55,2.32.09,4.64.14,6.96.12,4.05-.02,8.1-.23,12.12-.73,2-.25,4-.56,5.99-.97,3.89-.78,8.47-1.06,8.48-6.11,0-1.88-.02-3.81-.74-5.54-1.39-3.29-4.62-3.47-7.74-3.48-2.54,0-5.09.13-7.63,0-1.59-.08-3.09-.43-4.66-.68-1.51-.24-3.05-.5-4.45-1.16-2.19-1.03-4.04-1.63-3.28-4.01.76-2.38,3.57-3.23,5.98-3.33,2.95-.13,5.9.33,8.84.17,2.73-.15,5.94-1.11,7.74-3.34.89-1.1,1.3-2.54,1.27-3.95-.03-1.61-.35-2.66-1.73-3.45-1.31-.75-2.73-1.13-4.22-1.41-3.02-.56-6.09-.82-9.16-.8-2.42.01-5.38-.09-6.51-2.32-.84-1.66-.11-5.73,1.24-6.97,1.34-1.24,3.15-1.77,4.91-2.14,3.34-.71,6.91-1.3,10.32-1.53,1.22-.08,2.13.32,3.27-.31,1.13-.63,2-1.74,2.5-2.92.75-1.77.8-3.76.7-5.68-.07-1.36-.26-2.85-1.28-3.76-.48-.43-1.1-.68-1.71-.89-2.42-.84-5.01-1.29-7.56-1.43"/>
      <path class="cls-1" d="M587.75,6.67c0,3.66-2.97,6.65-6.65,6.65s-6.65-2.99-6.65-6.65,2.97-6.67,6.75-6.67,6.56,3.03,6.56,6.67M575.41,6.67c0,3.16,2.57,5.76,5.69,5.76s5.69-2.58,5.69-5.76-2.54-5.78-5.61-5.78-5.76,2.54-5.76,5.78M581.45,2.91c1.74,0,2.68.73,2.68,2.1,0,.85-.46,1.49-1.33,1.83.97.35,1.2.81,1.23,2.41.04.75.08.96.19,1.2h-1.16c-.11-.19-.13-.46-.19-1.43-.06-.91-.17-1.27-.52-1.5-.27-.19-.73-.29-1.33-.29h-1.56v3.22h-1.19V2.91h3.18ZM579.46,6.48h1.64c1.23,0,1.83-.46,1.83-1.41s-.54-1.37-1.69-1.37h-1.78v2.78Z"/>
      <path class="cls-1" d="M209.46,8.39c.84-1.11,1.92-1.88,3.05-2.67,3.39-2.39,7.7-1.58,11.59-1.57,3.84,0,7.68-.09,11.5-.49,3.59-.37,7.31-.96,10.84.07,2.56.75,4.77,1.59,6.76,3.43,2.09,1.93,3.14,4.06,3.14,6.38,0,1.98-.78,3.91-2.34,5.8-2.04,2.49-5.01,3.99-8.91,4.51-3.99.43-5.99,1.89-5.99,4.38,0,1.46.34,4.99,1.03,10.57.87,6.19,1.31,11.86,1.31,17.02,0,4.73-.44,7.91-1.31,9.54-1.85,3.18-4.58,4.9-8.18,5.16h-1.31c-4.58,0-7.98-1.85-10.22-5.54-.88-1.46-1.32-3.87-1.32-7.22s.78-7.17,2.34-11.22c2.72-7.22,4.09-12.89,4.09-17.02,0-2.14-.46-3.63-1.39-4.45-.93-.82-2.56-1.23-4.89-1.23-1.75,0-3.58-.45-5.48-1.35-1.9-.9-3.34-1.95-4.31-3.16-.97-1.2-1.46-3.05-1.46-5.54,0-2.32.49-4.13,1.46-5.42"/>
    </g>
  </g>
</svg>