<?xml version="1.0" encoding="UTF-8"?>
<svg id="Layer_2" data-name="Layer 2" xmlns="http://www.w3.org/2000/svg" viewBox="0 0 759.37 120.55">
  <defs>
    <style>
      .cls-1 {
        fill: #2f3133;
      }
    </style>
  </defs>
  <g id="Layer_1-2" data-name="Layer 1">
    <g>
      <path class="cls-1" d="M96.46,35.79v-6.92h-17.89v-7.61h15.92v-6.67h-15.92v-7.12h17.5V.69h-25.9v35.09h26.3ZM40.99,35.79v-14.58h13.94v14.58h8.35V.69h-8.35v13.69h-13.94V.69h-8.4v35.09h8.4ZM18.04,35.79V7.56h9.64V.69H0v6.87h9.64v28.22h8.4Z"/>
      <path class="cls-1" d="M633,7.46h6.67c3.16,0,5.39,1.33,5.39,4.55v.49c0,3.21-2.22,4.55-5.39,4.55h-6.67V7.46ZM633,35.74v-11.86h5.24l7.32,11.86h9.14l-8.25-12.8c4.4-1.58,7.22-5.09,7.22-10.43v-.49c0-7.41-5.59-11.37-13.05-11.37h-15.92v35.1h8.3Z"/>
      <path class="cls-1" d="M673,9.24l4.45,12.95h-8.95l4.5-12.95ZM690.84,35.74l-13.2-35.1h-9.1l-13.15,35.1h8.4l2.47-7.12h13.4l2.47,7.12h8.7Z"/>
      <path class="cls-1" d="M737.13,35.74v-11.67l2.82-3.11,9.94,14.78h9.49l-13.89-20.32,13.3-14.78h-9.59l-12.06,13.89V.64h-8.4v35.1h8.4ZM708.5,36.38c9.19,0,14.53-5.44,15.57-13h-8.35c-.74,3.66-3.21,6.13-7.31,6.13-5.44,0-8.55-4.35-8.55-10.83v-.99c0-6.47,3.02-10.83,8.45-10.83,4,0,6.43,2.22,7.27,5.78h8.4c-.94-7.41-6.62-12.65-15.52-12.65-10.43,0-17.25,7.36-17.25,17.7v.99c0,10.33,6.57,17.7,17.3,17.7Z"/>
      <path class="cls-1" d="M210.55,33.04V3.39c0-1.5-1.21-2.7-2.7-2.7h-82.83c-1.49,0-2.7,1.21-2.7,2.7v29.64c0,1.49,1.21,2.7,2.7,2.7h16.05c1.5,0,2.7,1.21,2.7,2.7v17.41c0,1.5,1.21,2.7,2.7,2.7h39.94c1.49,0,2.7-1.21,2.7-2.7v-17.41c0-1.49,1.21-2.7,2.7-2.7h16.05c1.49,0,2.7-1.21,2.7-2.7h0Z"/>
      <path class="cls-1" d="M146.46,61.91h39.94c1.49,0,2.7,1.21,2.7,2.7v53.22c0,1.49-1.21,2.7-2.7,2.7h-39.94c-1.49,0-2.7-1.21-2.7-2.7v-53.22c0-1.49,1.21-2.7,2.7-2.7"/>
      <path class="cls-1" d="M218.49,61.91h39.94c1.49,0,2.7,1.21,2.7,2.7v53.22c0,1.49-1.21,2.7-2.7,2.7h-39.94c-1.49,0-2.7-1.21-2.7-2.7v-53.22c0-1.49,1.21-2.7,2.7-2.7"/>
      <path class="cls-1" d="M218.49.68h39.94c1.49,0,2.7,1.21,2.7,2.7v52.46c0,1.49-1.21,2.7-2.7,2.7h-39.94c-1.49,0-2.7-1.21-2.7-2.7V3.38c0-1.49,1.21-2.7,2.7-2.7"/>
      <path class="cls-1" d="M270.8,120.55h35.79c1.67,0,2.94-1.49,2.67-3.14l-7.51-45.68c-.27-1.64,1-3.14,2.67-3.14h.67c1.31,0,2.42.93,2.66,2.21l8.77,47.54c.24,1.28,1.36,2.22,2.65,2.22h47.72c1.49,0,2.7-1.21,2.7-2.7v-53.22c0-1.5-1.21-2.7-2.7-2.7h-96.09c-1.49,0-2.7,1.21-2.7,2.7v53.22c0,1.5,1.21,2.7,2.7,2.7h0Z"/>
      <path class="cls-1" d="M329.64,3.81l7.54,46.75c.26,1.64-1.01,3.13-2.67,3.13h-.68c-1.31,0-2.42-.93-2.66-2.22l-8.95-48.59c-.24-1.28-1.36-2.22-2.66-2.22h-48.76c-1.49,0-2.7,1.21-2.7,2.7v52.46c0,1.49,1.21,2.7,2.7,2.7h96.09c1.49,0,2.7-1.21,2.7-2.7V3.38c0-1.5-1.21-2.7-2.7-2.7h-34.58c-1.66,0-2.93,1.49-2.67,3.13h0Z"/>
      <path class="cls-1" d="M405,77.29h10.82c4.36,0,5.23.52,5.23,2.97,0,2.96-1.22,3.49-7.68,3.49h-32.7c-1.5,0-2.7,1.21-2.7,2.7v31.39c0,1.49,1.21,2.7,2.7,2.7h45.95c32.09,0,43.08-9.42,43.08-38.54,0-7.3-.7-13.31-2.21-18.16-.35-1.14-1.39-1.93-2.6-1.93h-81.96c-2.16,0-3.47,2.43-2.26,4.21,5.03,7.39,13.24,11.17,24.33,11.17h0Z"/>
      <path class="cls-1" d="M439,43.4h-6.63c-3.84,0-5.23-.87-5.23-3.14,0-1.92.87-3.31,3.83-3.31h32.88c1.49,0,2.7-1.21,2.7-2.7V3.38c0-1.5-1.21-2.7-2.7-2.7h-48.74c-25.29,0-40.29,12.38-40.29,39.06,0,6.63.94,12.3,2.75,17.03.41,1.06,1.41,1.77,2.55,1.77h82.4c2.08,0,3.42-2.28,2.35-4.06-4.66-7.81-12.95-11.08-25.87-11.08Z"/>
      <path class="cls-1" d="M477.62,120.55h66.62c1.49,0,2.7-1.21,2.7-2.7v-31.21c0-1.49-1.21-2.7-2.7-2.7h-28.25c-1.49,0-2.7-1.21-2.7-2.7s1.21-2.7,2.7-2.7h21.98c1.49,0,2.7-1.21,2.7-2.7v-11.19c0-1.5-1.21-2.7-2.7-2.7h-60.34c-1.49,0-2.7,1.21-2.7,2.7v53.22c0,1.5,1.21,2.7,2.7,2.7h0Z"/>
      <path class="cls-1" d="M513.29,41.06v-1.05c0-1.49,1.21-2.7,2.7-2.7h28.25c1.5,0,2.7-1.21,2.7-2.7V3.39c0-1.49-1.21-2.7-2.7-2.7h-66.62c-1.49,0-2.7,1.21-2.7,2.7v52.46c0,1.5,1.21,2.7,2.7,2.7h60.34c1.49,0,2.7-1.21,2.7-2.7v-9.38c0-1.49-1.21-2.7-2.7-2.7h-21.97c-1.5,0-2.7-1.21-2.7-2.7h0Z"/>
      <path class="cls-1" d="M555.76.68h39.94c1.49,0,2.7,1.21,2.7,2.7v52.46c0,1.49-1.21,2.7-2.7,2.7h-39.94c-1.49,0-2.7-1.21-2.7-2.7V3.38c0-1.49,1.21-2.7,2.7-2.7"/>
      <path class="cls-1" d="M598.39,82.27v-17.65c0-1.49-1.21-2.7-2.7-2.7h-39.94c-1.49,0-2.7,1.21-2.7,2.7v53.22c0,1.49,1.21,2.7,2.7,2.7h70.98c1.49,0,2.7-1.21,2.7-2.7v-30.18c0-1.49-1.21-2.7-2.7-2.7h-25.64c-1.5,0-2.7-1.21-2.7-2.7Z"/>
    </g>
  </g>
</svg>