<?xml version="1.0" encoding="UTF-8"?>
<svg id="Layer_2" data-name="Layer 2" xmlns="http://www.w3.org/2000/svg" viewBox="0 0 391.7 272.82">
  <defs>
    <style>
      .cls-1 {
        fill: #2f3133;
      }
    </style>
  </defs>
  <g id="Layer_1-2" data-name="Layer 1">
    <g>
      <g>
        <path class="cls-1" d="M274.13,153.86l42.53-24.55c.25-.15.25-.51,0-.65l-42.53-24.55c-.12-.07-.26-.07-.38,0l-42.53,24.55c-.25.15-.25.51,0,.65l42.53,24.55c.12.07.26.07.38,0ZM272.14,125.9l-19.98,11.54c-.12.07-.26.07-.38,0l-14.08-8.13c-.25-.15-.25-.51,0-.65l34.06-19.67c.25-.15.57.04.57.33v16.26c0,.13-.07.26-.19.33ZM255.77,139.09l17.99-10.38c.12-.07.26-.07.38,0l17.99,10.38c.25.15.25.51,0,.65l-17.99,10.38c-.12.07-.26.07-.38,0l-17.99-10.38c-.25-.15-.25-.51,0-.65ZM295.73,137.44l-19.98-11.54c-.12-.07-.19-.19-.19-.33v-16.26c0-.29.31-.47.57-.33l34.06,19.67c.25.15.25.51,0,.65l-14.08,8.13c-.12.07-.26.07-.38,0Z"/>
        <path class="cls-1" d="M222.07,123.8l42.53-24.55c.25-.15.25-.51,0-.65l-42.53-24.55c-.12-.07-.26-.07-.38,0l-42.53,24.55c-.25.15-.25.51,0,.65l42.53,24.55c.12.07.26.07.38,0ZM220.07,95.84l-19.98,11.54c-.12.07-.26.07-.38,0l-14.08-8.13c-.25-.15-.25-.51,0-.65l34.06-19.67c.25-.15.57.04.57.33v16.26c0,.13-.07.26-.19.33ZM203.71,109.03l17.99-10.38c.12-.07.26-.07.38,0l17.99,10.38c.25.15.25.51,0,.65l-17.99,10.38c-.12.07-.26.07-.38,0l-17.99-10.38c-.25-.15-.25-.51,0-.65ZM243.67,107.38l-19.98-11.54c-.12-.07-.19-.19-.19-.33v-16.26c0-.29.31-.47.57-.33l34.06,19.67c.25.15.25.51,0,.65l-14.08,8.13c-.12.07-.26.07-.38,0Z"/>
        <path class="cls-1" d="M65.51,43.98l-42.53,24.55c-.25.15-.25.51,0,.65l42.53,24.55c.12.07.26.07.38,0l42.53-24.55c.25-.15.25-.51,0-.65l-42.53-24.55c-.12-.07-.26-.07-.38,0ZM67.88,48.87l34.06,19.67c.25.15.25.51,0,.65l-14.08,8.13c-.12.07-.26.07-.38,0l-19.98-11.54c-.12-.07-.19-.19-.19-.33v-16.26c0-.29.31-.47.57-.33ZM64.08,49.19v16.26c0,.13-.07.26-.19.33l-19.98,11.54c-.12.07-.26.07-.38,0l-14.08-8.13c-.25-.15-.25-.51,0-.65l34.06-19.67c.25-.15.57.04.57.33ZM47.52,78.97l17.99-10.38c.12-.07.26-.07.38,0l17.99,10.38c.25.15.25.51,0,.65l-17.99,10.38c-.12.07-.26.07-.38,0l-17.99-10.38c-.25-.15-.25-.51,0-.65Z"/>
        <path class="cls-1" d="M170.01,93.74l42.53-24.55c.25-.15.25-.51,0-.65l-42.53-24.55c-.12-.07-.26-.07-.38,0l-42.53,24.55c-.25.15-.25.51,0,.65l42.53,24.55c.12.07.26.07.38,0ZM168.01,65.78l-19.98,11.54c-.12.07-.26.07-.38,0l-14.08-8.13c-.25-.15-.25-.51,0-.65l34.06-19.67c.25-.15.57.04.57.33v16.26c0,.13-.07.26-.19.33ZM151.64,78.97l17.99-10.38c.12-.07.26-.07.38,0l17.99,10.38c.25.15.25.51,0,.65l-17.99,10.38c-.12.07-.26.07-.38,0l-17.99-10.38c-.25-.15-.25-.51,0-.65ZM191.61,77.32l-19.98-11.54c-.12-.07-.19-.19-.19-.33v-16.26c0-.29.31-.47.57-.33l34.06,19.67c.25.15.25.51,0,.65l-14.08,8.13c-.12.07-.26.07-.38,0Z"/>
        <path class="cls-1" d="M325.82,134.16l-42.53,24.55c-.25.15-.25.51,0,.65l42.53,24.55c.12.07.26.07.38,0l42.53-24.55c.25-.15.25-.51,0-.65l-42.53-24.55c-.12-.07-.26-.07-.38,0ZM328.19,139.04l34.06,19.67c.25.15.25.51,0,.65l-14.08,8.13c-.12.07-.26.07-.38,0l-19.98-11.54c-.12-.07-.19-.19-.19-.33v-16.26c0-.29.31-.47.57-.33ZM324.39,139.37v16.26c0,.13-.07.26-.19.33l-19.98,11.54c-.12.07-.26.07-.38,0l-14.08-8.13c-.25-.15-.25-.51,0-.65l34.06-19.67c.25-.15.57.04.57.33ZM307.83,169.14l17.99-10.38c.12-.07.26-.07.38,0l17.99,10.38c.25.15.25.51,0,.65l-17.99,10.38c-.12.07-.26.07-.38,0l-17.99-10.38c-.25-.15-.25-.51,0-.65Z"/>
        <path class="cls-1" d="M231.23,189.42l42.53,24.55c.12.07.26.07.38,0l42.53-24.55c.25-.15.25-.51,0-.65l-42.53-24.55c-.12-.07-.26-.07-.38,0l-42.53,24.55c-.25.15-.25.51,0,.65ZM237.69,188.77l34.06-19.67c.25-.15.57.04.57.33v16.26c0,.13-.07.26-.19.33l-19.98,11.54c-.12.07-.26.07-.38,0l-14.08-8.13c-.25-.15-.25-.51,0-.65ZM273.75,210.24l-17.99-10.38c-.25-.15-.25-.51,0-.65l17.99-10.38c.12-.07.26-.07.38,0l17.99,10.38c.25.15.25.51,0,.65l-17.99,10.38c-.12.07-.26.07-.38,0ZM276.13,169.1l34.06,19.67c.25.15.25.51,0,.65l-14.08,8.13c-.12.07-.26.07-.38,0l-19.98-11.54c-.12-.07-.19-.19-.19-.33v-16.26c0-.29.31-.47.57-.33Z"/>
        <path class="cls-1" d="M117.57,74.04l-42.53,24.55c-.25.15-.25.51,0,.65l42.53,24.55c.12.07.26.07.38,0l42.53-24.55c.25-.15.25-.51,0-.65l-42.53-24.55c-.12-.07-.26-.07-.38,0ZM119.94,78.93l34.06,19.67c.25.15.25.51,0,.65l-14.08,8.13c-.12.07-.26.07-.38,0l-19.98-11.54c-.12-.07-.19-.19-.19-.33v-16.26c0-.29.31-.47.57-.33ZM116.14,79.25v16.26c0,.13-.07.26-.19.33l-19.98,11.54c-.12.07-.26.07-.38,0l-14.09-8.13c-.25-.15-.25-.51,0-.65l34.06-19.67c.25-.15.57.04.57.33ZM99.58,109.03l17.99-10.38c.12-.07.26-.07.38,0l17.99,10.38c.25.15.25.51,0,.65l-17.99,10.38c-.12.07-.26.07-.38,0l-17.99-10.38c-.25-.15-.25-.51,0-.65Z"/>
        <path class="cls-1" d="M221.69,134.16l-42.53,24.55c-.25.15-.25.51,0,.65l42.53,24.55c.12.07.26.07.38,0l42.53-24.55c.25-.15.25-.51,0-.65l-42.53-24.55c-.12-.07-.26-.07-.38,0ZM224.06,139.04l34.06,19.67c.25.15.25.51,0,.65l-14.08,8.13c-.12.07-.26.07-.38,0l-19.98-11.54c-.12-.07-.19-.19-.19-.33v-16.26c0-.29.31-.47.57-.33ZM220.26,139.37v16.26c0,.13-.07.26-.19.33l-19.98,11.54c-.12.07-.26.07-.38,0l-14.08-8.13c-.25-.15-.25-.51,0-.65l34.06-19.67c.25-.15.57.04.57.33ZM203.71,169.14l17.99-10.38c.12-.07.26-.07.38,0l17.99,10.38c.25.15.25.51,0,.65l-17.99,10.38c-.12.07-.26.07-.38,0l-17.99-10.38c-.25-.15-.25-.51,0-.65Z"/>
        <path class="cls-1" d="M169.63,104.1l-42.53,24.55c-.25.15-.25.51,0,.65l42.53,24.55c.12.07.26.07.38,0l42.53-24.55c.25-.15.25-.51,0-.65l-42.53-24.55c-.12-.07-.26-.07-.38,0ZM172,108.98l34.06,19.67c.25.15.25.51,0,.65l-14.08,8.13c-.12.07-.26.07-.38,0l-19.98-11.54c-.12-.07-.19-.19-.19-.33v-16.26c0-.29.31-.47.57-.33ZM168.2,109.31v16.26c0,.13-.07.26-.19.33l-19.98,11.54c-.12.07-.26.07-.38,0l-14.08-8.13c-.25-.15-.25-.51,0-.65l34.06-19.67c.25-.15.57.04.57.33ZM151.64,139.09l17.99-10.38c.12-.07.26-.07.38,0l17.99,10.38c.25.15.25.51,0,.65l-17.99,10.38c-.12.07-.26.07-.38,0l-17.99-10.38c-.25-.15-.25-.51,0-.65Z"/>
        <path class="cls-1" d="M160.47,38.48l-42.53-24.55c-.12-.07-.26-.07-.38,0l-42.53,24.55c-.25.15-.25.51,0,.65l42.53,24.55c.12.07.26.07.38,0l42.53-24.55c.25-.15.25-.51,0-.65ZM99.58,48.91l17.99-10.38c.12-.07.26-.07.38,0l17.99,10.38c.25.15.25.51,0,.65l-17.99,10.38c-.12.07-.26.07-.38,0l-17.99-10.38c-.25-.15-.25-.51,0-.65ZM139.54,47.26l-19.98-11.54c-.12-.07-.19-.19-.19-.33v-16.26c0-.29.31-.47.57-.33l34.06,19.67c.25.15.25.51,0,.65l-14.08,8.13c-.12.07-.26.07-.38,0ZM116.14,19.14v16.26c0,.13-.07.26-.19.33l-19.98,11.54c-.12.07-.26.07-.38,0l-14.08-8.13c-.25-.15-.25-.51,0-.65l34.06-19.67c.25-.15.57.04.57.33Z"/>
        <path class="cls-1" d="M0,114.5c0,.13.07.26.19.33l273.57,157.94c.12.07.26.07.38,0l117.38-67.77c.12-.07.19-.19.19-.33v-46.35c0-.13-.07-.26-.19-.33L117.94.05c-.12-.07-.26-.07-.38,0L.19,67.82c-.12.07-.19.19-.19.33v46.35ZM271.76,267.88L3.42,112.96c-.12-.07-.19-.19-.19-.33v-40.32c0-.29.31-.47.57-.33l268.34,154.92c.12.07.19.19.19.33v40.32c0,.29-.31.47-.57.33ZM5.42,68.54L117.57,3.79c.12-.07.26-.07.38,0l268.34,154.92c.25.15.25.51,0,.65l-112.15,64.75c-.12.07-.26.07-.38,0L5.42,69.19c-.25-.15-.25-.51,0-.65ZM388.27,203.13l-112.15,64.75c-.25.15-.57-.04-.57-.33v-40.32c0-.13.07-.26.19-.33l112.15-64.75c.25-.15.57.04.57.33v40.32c0,.13-.07.26-.19.33Z"/>
      </g>
      <g>
        <polygon class="cls-1" points="106.52 154.55 95.84 148.38 95.84 160.51 90.94 157.68 90.94 128.1 106.52 137.1 106.52 142.72 95.84 136.55 95.84 142.76 106.52 148.93 106.52 154.55"/>
        <path class="cls-1" d="M67,114.28l-4.68-2.7-9.15,24.29,5.12,2.96,1.83-4.9,9.07,5.24,1.83,7.01,5.12,2.96-9.15-34.86ZM61.8,129.54l2.85-7.94,2.85,11.24-5.71-3.3Z"/>
        <path class="cls-1" d="M247.43,238.69c.29,2.7,1.94,5.26,4.43,6.7,2.2,1.27,3.66,1.18,3.66-.85,0-1.65-.84-3.06-2.63-4.65-1.44-1.28-2.88-2.56-4.32-3.85-3.95-3.51-5.85-7.73-5.85-12.13,0-5.87,3.99-6.32,8.49-3.72,5.12,2.96,8.27,8.2,8.86,13.61-1.68-.97-3.37-1.94-5.05-2.92-.44-2.24-2.23-4.16-3.88-5.11-2.05-1.18-3.51-1.1-3.51.97,0,1.73,1.13,3.11,2.56,4.39,1.39,1.24,2.78,2.48,4.17,3.72,3.95,3.51,6.07,7.44,6.07,12.51,0,5.41-2.89,6.91-8.56,3.63-5.67-3.27-9.18-9.19-9.48-15.23,1.68.97,3.37,1.94,5.05,2.92Z"/>
        <polygon class="cls-1" points="227.37 218.7 227.37 224.32 216.69 218.15 216.69 224.66 227.37 230.83 227.37 236.45 211.78 227.45 211.78 197.87 227.37 206.87 227.37 212.49 216.69 206.32 216.69 212.54 227.37 218.7"/>
        <polygon class="cls-1" points="138.36 167.32 138.36 172.93 127.68 166.77 127.68 178.89 122.78 176.06 122.78 146.49 138.36 155.49 138.36 161.1 127.68 154.94 127.68 161.15 138.36 167.32"/>
        <path class="cls-1" d="M167.97,189.69c3.62,1.12,5.53-.83,5.53-5.22,0-5.41-2.82-10.33-8.09-13.37-3.6-2.08-7.2-4.15-10.79-6.23v29.58c1.63.94,3.27,1.89,4.9,2.83v-12.17c1,.58,2,1.15,3,1.73,2.06,5.25,4.12,10.49,6.18,15.74,1.88,1.08,3.76,2.17,5.64,3.25-2.12-5.38-4.24-10.76-6.37-16.14ZM165.52,183.08c-2-1.15-4-2.31-6-3.46v-6.3c2,1.15,4,2.31,6,3.46,1.87,1.08,3.07,2.87,3.07,4.94s-1.21,2.43-3.07,1.35Z"/>
        <polygon class="cls-1" points="189.68 185.11 194.58 187.94 194.58 217.52 189.68 214.69 189.68 185.11"/>
        <polygon class="cls-1" points="25.17 119.71 19.86 116.64 15.14 84.34 20.08 87.19 23.05 108.93 26.08 94.88 30.84 97.63 33.88 115.19 36.84 96.87 41.78 99.72 37.06 126.57 31.75 123.51 28.46 104.45 25.17 119.71"/>
      </g>
    </g>
  </g>
</svg>