<?xml version="1.0" encoding="UTF-8"?>
<svg id="Layer_2" data-name="Layer 2" xmlns="http://www.w3.org/2000/svg" viewBox="0 0 544.98 103.39">
  <defs>
    <style>
      .cls-1 {
        fill: #2f3133;
      }
    </style>
  </defs>
  <g id="Layer_1-2" data-name="Layer 1">
    <path class="cls-1" d="M0,86.07l53.86-52.26H1.44v-13.3h73.25v15.23l-53.86,52.25h55.14v13.31H0v-15.23ZM78.54,79.34c0-17.95,15.39-22.92,29.01-24.68l25.33-3.21c6.09-.8,7.85-3.52,7.85-7.21v-.16c0-7.22-6.25-12.5-19.87-12.5s-20.52,4.97-21.8,13.3h-16.99c1.93-16.35,16.19-26.45,39.27-26.45,25.81,0,36.39,10.9,36.39,28.85v54.02h-16.18v-12.83c-6.9,9.94-19.24,14.91-33.19,14.91-18.43,0-29.81-9.3-29.81-24.05M140.73,64.76v-3.85c-2.72,1.12-5.77,1.76-9.14,2.24l-20.2,2.73c-10.42,1.44-15.23,5.29-15.23,12.34,0,7.53,6.42,12.02,16.83,12.02,17.16,0,27.73-11.71,27.73-25.49M165.26,0h16.99v101.3h-16.99V0ZM187.86,79.34c0-17.95,15.39-22.92,29.01-24.68l25.33-3.21c6.09-.8,7.85-3.52,7.85-7.21v-.16c0-7.22-6.25-12.5-19.88-12.5s-20.51,4.97-21.8,13.3h-16.99c1.93-16.35,16.19-26.45,39.27-26.45,25.8,0,36.39,10.9,36.39,28.85v54.02h-16.18v-12.83c-6.9,9.94-19.24,14.91-33.19,14.91-18.43,0-29.81-9.3-29.81-24.05M250.05,64.76v-3.85c-2.72,1.12-5.77,1.76-9.14,2.24l-20.2,2.73c-10.42,1.44-15.23,5.29-15.23,12.34,0,7.53,6.42,12.02,16.83,12.02,17.15,0,27.73-11.71,27.73-25.49M274.57,20.51h17v13.14c6.09-9.62,17.63-15.23,31.73-15.23,21.16,0,33.66,12.18,33.66,34.63v48.24h-16.99v-45.85c0-14.91-7.85-23.08-22.28-23.08-15.55,0-26.12,10.42-26.12,25.17v43.76h-17V20.51ZM362.57,60.59c0-26.13,18.11-42.16,39.75-42.16,12.98,0,24.21,4.65,30.94,14.27V0h16.99v101.3h-16.99v-12.34c-7.37,9.94-17.95,14.42-30.94,14.42-21.64,0-39.75-16.34-39.75-42.8M433.74,60.75c0-16.83-9.94-28.53-26.77-28.53s-26.77,11.54-26.77,28.37,10.1,29.01,26.77,29.01,26.77-12.02,26.77-28.86M455.86,60.75c0-24.84,16.83-42.31,44.56-42.31s44.56,17.47,44.56,42.31-16.67,42.64-44.56,42.64-44.56-17.79-44.56-42.64M527.35,60.75c0-15.71-8.65-28.53-26.93-28.53s-26.92,12.82-26.92,28.53,8.65,28.86,26.92,28.86,26.93-12.98,26.93-28.86"/>
  </g>
</svg>