<?xml version="1.0" encoding="UTF-8"?>
<svg id="Layer_2" data-name="Layer 2" xmlns="http://www.w3.org/2000/svg" viewBox="0 0 256.86 22.2">
  <defs>
    <style>
      .cls-1 {
        fill: #2f3133;
      }
    </style>
  </defs>
  <g id="Layer_1-2" data-name="Layer 1">
    <g>
      <g>
        <path class="cls-1" d="M252.88,1.43c1.85,0,3.35,1.5,3.35,3.35s-1.5,3.35-3.35,3.35-3.35-1.5-3.35-3.35,1.5-3.35,3.35-3.35M252.88.8c-2.2,0-3.98,1.78-3.98,3.98s1.78,3.98,3.98,3.98,3.98-1.78,3.98-3.98-1.78-3.98-3.98-3.98h0Z"/>
        <path class="cls-1" d="M254.55,5.3c-.03.55-.19.98-.47,1.27s-.66.44-1.13.44c-.57,0-1-.19-1.3-.56-.3-.37-.44-.93-.44-1.66s.15-1.29.45-1.67c.3-.38.74-.57,1.32-.57.52,0,.92.15,1.2.46s.43.77.44,1.39h-.85c-.02-.35-.1-.61-.23-.78-.13-.17-.31-.26-.55-.26-.27,0-.48.12-.63.35-.14.23-.21.59-.21,1.08s.07.83.21,1.07.34.35.59.35c.22,0,.39-.07.51-.23.12-.15.19-.38.22-.68h.86Z"/>
      </g>
      <polygon class="cls-1" points="62.84 4.53 62.84 1 61.8 1 61.8 8.56 62.84 8.56 62.84 5.27 65.58 8.56 66.86 8.56 63.78 4.87 66.97 1 65.75 1 62.84 4.53"/>
      <path class="cls-1" d="M70.49,1l-2.21,7.56h1.03l.76-2.67h2.47l.76,2.67h1.09l-2.21-7.56h-1.7ZM70.32,5.01l.94-3.29h.09l.93,3.29h-1.97Z"/>
      <polygon class="cls-1" points="80.48 6.02 80.51 7.95 80.4 7.95 77.83 1 76.04 1 76.04 8.56 77 8.56 77 3.53 76.96 1.62 77.08 1.62 79.65 8.56 81.44 8.56 81.44 1 80.48 1 80.48 6.02"/>
      <path class="cls-1" d="M85.02,2.1c.31-.24.73-.36,1.26-.36.5,0,.9.12,1.21.35.31.24.51.58.61,1.03h.99c-.03-.48-.16-.88-.39-1.22-.24-.33-.56-.59-.97-.77-.41-.18-.89-.27-1.44-.27s-1.04.09-1.45.27-.73.44-.96.77-.34.73-.34,1.18c0,.6.18,1.07.55,1.43.36.35.9.58,1.62.69l.9.11c.42.06.74.18.96.38.22.2.33.46.33.78,0,.42-.15.74-.44.98s-.69.36-1.2.36-.89-.1-1.19-.3c-.3-.2-.51-.5-.6-.89h-1.01c.04.43.17.81.4,1.12.23.31.55.54.96.71.41.16.89.25,1.44.25s1.01-.09,1.41-.27c.4-.18.71-.44.93-.77.22-.33.33-.72.33-1.18,0-.59-.18-1.07-.55-1.42-.36-.36-.9-.58-1.62-.69l-.9-.11c-.41-.06-.73-.19-.95-.39-.22-.2-.33-.46-.33-.78,0-.42.15-.75.46-.99Z"/>
      <polygon class="cls-1" points="96.5 7.68 92.85 7.68 92.85 1 91.8 1 91.8 8.56 96.5 8.56 96.5 7.68"/>
      <polygon class="cls-1" points="103.57 7.68 101.47 7.68 101.47 1.88 103.57 1.88 103.57 1 98.32 1 98.32 1.88 100.42 1.88 100.42 7.68 98.32 7.68 98.32 8.56 103.57 8.56 103.57 7.68"/>
      <polygon class="cls-1" points="110.96 7.68 107.28 7.68 107.28 5.17 110.54 5.17 110.54 4.34 107.28 4.34 107.28 1.88 111.07 1.88 111.07 1 106.24 1 106.24 8.56 110.96 8.56 110.96 7.68"/>
      <polygon class="cls-1" points="112.73 1.88 115.22 1.88 115.22 8.56 116.27 8.56 116.27 1.88 118.76 1.88 118.76 1 112.73 1 112.73 1.88"/>
      <path class="cls-1" d="M130.77,9.06c.5.43,1.12.73,1.85.88v-.81c-.78-.25-1.36-.72-1.76-1.42s-.59-1.61-.59-2.74.2-2.04.59-2.75c.4-.7.98-1.17,1.76-1.41v-.81c-.73.16-1.35.45-1.85.88-.5.43-.88.98-1.13,1.67-.25.68-.38,1.49-.38,2.42s.13,1.73.38,2.41c.25.68.63,1.24,1.13,1.67Z"/>
      <path class="cls-1" d="M140.1,7.61c.56-.64.85-1.58.85-2.83s-.28-2.2-.85-2.83-1.4-.95-2.51-.95h-2.26v7.56h2.26c1.11,0,1.95-.32,2.51-.95ZM136.38,1.88h1.21c.77,0,1.35.24,1.74.72.39.48.58,1.21.58,2.18s-.19,1.7-.58,2.18c-.39.48-.97.72-1.74.72h-1.21V1.88Z"/>
      <polygon class="cls-1" points="147.97 7.68 144.29 7.68 144.29 5.17 147.55 5.17 147.55 4.34 144.29 4.34 144.29 1.88 148.08 1.88 148.08 1 143.25 1 143.25 8.56 147.97 8.56 147.97 7.68"/>
      <path class="cls-1" d="M152.85,7.82c-.49,0-.89-.1-1.19-.3-.3-.2-.51-.5-.6-.89h-1.01c.04.43.17.81.4,1.12.23.31.55.54.96.71.41.16.89.25,1.44.25s1.01-.09,1.41-.27c.4-.18.71-.44.93-.77.22-.33.33-.72.33-1.18,0-.59-.18-1.07-.55-1.42-.36-.36-.9-.58-1.62-.69l-.9-.11c-.41-.06-.73-.19-.95-.39-.22-.2-.33-.46-.33-.78,0-.42.15-.75.46-.99.31-.24.73-.36,1.26-.36.5,0,.9.12,1.21.35.31.24.51.58.61,1.03h.99c-.03-.48-.16-.88-.39-1.22-.24-.33-.56-.59-.97-.77-.41-.18-.89-.27-1.44-.27s-1.04.09-1.45.27-.73.44-.96.77-.34.73-.34,1.18c0,.6.18,1.07.55,1.43.36.35.9.58,1.62.69l.9.11c.42.06.74.18.96.38.22.2.33.46.33.78,0,.42-.15.74-.44.98s-.69.36-1.2.36Z"/>
      <polygon class="cls-1" points="162.79 7.68 160.69 7.68 160.69 1.88 162.79 1.88 162.79 1 157.54 1 157.54 1.88 159.64 1.88 159.64 7.68 157.54 7.68 157.54 8.56 162.79 8.56 162.79 7.68"/>
      <path class="cls-1" d="M167.44,8.69c.41,0,.75-.07,1.04-.21.29-.14.5-.33.63-.59h.29v.66h.88v-3.72h-2.76v.88h1.88c0,.41-.08.78-.23,1.1-.15.32-.35.58-.61.77-.26.19-.55.28-.88.28-.67,0-1.16-.25-1.48-.76s-.48-1.28-.48-2.33.16-1.81.49-2.3.82-.74,1.5-.74c.5,0,.89.14,1.18.43.29.29.48.7.58,1.25h.98c-.05-.55-.19-1.01-.42-1.39s-.54-.67-.92-.87c-.39-.2-.86-.3-1.4-.3-1,0-1.76.33-2.27.98-.51.66-.77,1.63-.77,2.94s.24,2.26.72,2.92,1.15.99,2.02.99Z"/>
      <polygon class="cls-1" points="176.71 6.02 176.74 7.95 176.62 7.95 174.05 1 172.27 1 172.27 8.56 173.22 8.56 173.22 3.53 173.19 1.62 173.31 1.62 175.88 8.56 177.66 8.56 177.66 1 176.71 1 176.71 6.02"/>
      <path class="cls-1" d="M191.46,1.18c-.4-.21-.87-.32-1.41-.32-1.02,0-1.77.33-2.28.98-.5.65-.76,1.63-.76,2.94s.25,2.29.74,2.94c.49.65,1.22.98,2.19.98.53,0,.99-.1,1.38-.3.38-.2.69-.5.91-.88.22-.39.35-.86.39-1.42h-.97c-.08.57-.27,1-.56,1.29-.29.29-.67.44-1.16.44-.64,0-1.12-.25-1.42-.74-.3-.49-.46-1.26-.46-2.3s.16-1.81.48-2.3.82-.74,1.5-.74c.5,0,.9.16,1.2.47.3.32.5.78.59,1.4h.97c-.04-.59-.18-1.09-.4-1.5-.23-.41-.54-.72-.93-.93Z"/>
      <path class="cls-1" d="M197.17,8.7c1,0,1.75-.33,2.25-.98.5-.65.75-1.63.75-2.94s-.25-2.29-.75-2.94c-.5-.65-1.25-.98-2.24-.98s-1.75.33-2.25.98-.75,1.63-.75,2.94.25,2.29.75,2.94c.5.65,1.25.98,2.24.98ZM195.7,2.48c.32-.49.81-.74,1.47-.74s1.16.25,1.48.74.48,1.26.48,2.3-.16,1.81-.48,2.3-.81.74-1.48.74-1.16-.25-1.47-.74c-.32-.49-.48-1.26-.48-2.3s.16-1.81.48-2.3Z"/>
      <polygon class="cls-1" points="202.67 3.94 202.64 1.66 202.76 1.66 203.87 5.97 205.29 5.97 206.39 1.66 206.51 1.66 206.47 3.94 206.47 8.56 207.43 8.56 207.43 1 205.8 1 204.66 5.42 204.55 5.42 203.4 1 201.72 1 201.72 8.56 202.67 8.56 202.67 3.94"/>
      <path class="cls-1" d="M213.9,1.27c-.39-.18-.84-.27-1.37-.27h-2.79v7.56h1.05v-3.18h1.74c.53,0,.98-.09,1.37-.27.39-.18.69-.43.9-.76.21-.33.32-.71.32-1.15s-.11-.84-.32-1.17c-.21-.33-.51-.58-.9-.76ZM213.68,4.19c-.27.24-.63.35-1.1.35h-1.79V1.88h1.79c.47,0,.84.12,1.1.35s.4.56.4.98-.13.74-.4.98Z"/>
      <path class="cls-1" d="M218.53,1l-2.21,7.56h1.03l.76-2.67h2.47l.76,2.67h1.09l-2.21-7.56h-1.7ZM218.37,5.01l.94-3.29h.09l.93,3.29h-1.97Z"/>
      <polygon class="cls-1" points="225.04 3.53 225.01 1.62 225.12 1.62 227.69 8.56 229.48 8.56 229.48 1 228.52 1 228.52 6.02 228.56 7.95 228.44 7.95 225.87 1 224.08 1 224.08 8.56 225.04 8.56 225.04 3.53"/>
      <polygon class="cls-1" points="234.35 4.16 234.26 4.44 234.16 4.44 234.07 4.16 232.16 1 231.02 1 233.66 5.29 233.66 8.56 234.71 8.56 234.71 5.29 237.34 1 236.28 1 234.35 4.16"/>
      <path class="cls-1" d="M242.5,2.55c-.25-.68-.63-1.24-1.12-1.67-.5-.43-1.12-.72-1.86-.88v.81c.78.24,1.36.71,1.76,1.41.4.7.59,1.62.59,2.75s-.2,2.04-.59,2.74-.98,1.17-1.76,1.42v.81c.74-.16,1.36-.45,1.86-.88s.87-.99,1.12-1.67c.25-.68.38-1.49.38-2.41s-.13-1.74-.38-2.42Z"/>
      <path class="cls-1" d="M63.93,14.36c-1,0-1.75.33-2.25.98s-.75,1.63-.75,2.94.25,2.29.75,2.94c.5.65,1.25.98,2.24.98s1.75-.33,2.25-.98c.5-.65.75-1.63.75-2.94s-.25-2.29-.75-2.94c-.5-.65-1.25-.98-2.24-.98ZM65.41,20.58c-.32.49-.81.74-1.48.74s-1.16-.25-1.47-.74c-.32-.49-.48-1.26-.48-2.3s.16-1.81.48-2.3c.32-.49.81-.74,1.47-.74s1.16.25,1.48.74.48,1.26.48,2.3-.16,1.81-.48,2.3Z"/>
      <path class="cls-1" d="M72.87,18.23v-.14c.4-.11.71-.3.93-.57.22-.27.34-.6.34-.98,0-.64-.24-1.14-.73-1.5-.49-.36-1.16-.54-2.01-.54h-2.37v7.56h2.37c.9,0,1.6-.18,2.11-.55.51-.37.77-.87.77-1.51,0-.44-.12-.82-.37-1.12s-.59-.52-1.04-.64ZM70.08,15.37h1.32c.57,0,1,.11,1.29.32.29.21.44.52.44.91s-.15.7-.45.91c-.3.21-.73.32-1.29.32h-1.32v-2.46ZM72.76,20.86c-.31.22-.76.34-1.36.34h-1.32v-2.54h1.32c.59,0,1.05.11,1.36.33s.47.54.47.94-.16.71-.47.93Z"/>
      <path class="cls-1" d="M76.51,15.41h3.63v4.39c0,.47-.14.84-.42,1.12-.28.27-.67.41-1.18.41s-.89-.14-1.17-.41c-.28-.27-.42-.64-.42-1.12v-1.05h-1.02v1.12c0,.49.1.9.31,1.25.21.35.51.61.9.8.39.19.86.28,1.4.28s1.02-.09,1.41-.28c.4-.19.7-.45.91-.8.21-.35.31-.76.31-1.25v-5.38h-4.67v.91Z"/>
      <polygon class="cls-1" points="84.03 22.06 88.75 22.06 88.75 21.18 85.07 21.18 85.07 18.67 88.33 18.67 88.33 17.84 85.07 17.84 85.07 15.38 88.86 15.38 88.86 14.5 84.03 14.5 84.03 22.06"/>
      <path class="cls-1" d="M93.82,15.24c.5,0,.9.16,1.2.47.3.32.5.78.59,1.4h.97c-.04-.59-.18-1.09-.4-1.5-.23-.41-.54-.72-.93-.93-.4-.21-.87-.32-1.41-.32-1.02,0-1.77.33-2.28.98-.5.65-.76,1.63-.76,2.94s.25,2.29.74,2.94c.49.65,1.22.98,2.19.98.53,0,.99-.1,1.38-.3.38-.2.69-.5.91-.88.22-.39.35-.86.39-1.42h-.97c-.08.57-.27,1-.56,1.29-.29.29-.67.44-1.16.44-.64,0-1.12-.25-1.42-.74-.3-.49-.46-1.26-.46-2.3s.16-1.81.48-2.3.82-.74,1.5-.74Z"/>
      <polygon class="cls-1" points="97.93 15.38 100.42 15.38 100.42 22.06 101.47 22.06 101.47 15.38 103.96 15.38 103.96 14.5 97.93 14.5 97.93 15.38"/>
      <path class="cls-1" d="M107.22,15.6c.31-.24.73-.36,1.26-.36.5,0,.9.12,1.21.35.31.24.51.58.61,1.03h.99c-.03-.48-.16-.88-.39-1.22-.24-.33-.56-.59-.97-.77-.41-.18-.89-.27-1.44-.27s-1.04.09-1.45.27-.73.44-.96.77-.34.73-.34,1.18c0,.6.18,1.07.55,1.43.36.35.9.58,1.62.69l.9.11c.42.06.74.18.96.38.22.2.33.46.33.78,0,.42-.15.74-.44.98s-.69.36-1.2.36-.89-.1-1.19-.3c-.3-.2-.51-.5-.6-.89h-1.01c.04.43.17.81.4,1.12.23.31.55.54.96.71.41.16.89.25,1.44.25s1.01-.09,1.41-.27c.4-.18.71-.44.93-.77.22-.33.33-.72.33-1.18,0-.59-.18-1.07-.55-1.42-.36-.36-.9-.58-1.62-.69l-.9-.11c-.41-.06-.73-.19-.95-.39-.22-.2-.33-.46-.33-.78,0-.42.15-.75.46-.99Z"/>
      <path class="cls-1" d="M115.75,20.51c-.27,0-.49.07-.64.21-.15.14-.23.34-.23.6s.08.46.23.6c.15.14.37.21.64.21s.49-.07.64-.21c.15-.14.23-.34.23-.6s-.08-.46-.23-.6c-.15-.14-.37-.21-.65-.21Z"/>
      <path class="cls-1" d="M129.43,15.6c.31-.24.73-.36,1.26-.36.5,0,.9.12,1.21.35.31.24.51.58.61,1.03h.99c-.03-.48-.16-.88-.39-1.22-.24-.33-.56-.59-.97-.77-.41-.18-.89-.27-1.44-.27s-1.04.09-1.45.27-.73.44-.96.77-.34.73-.34,1.18c0,.6.18,1.07.55,1.43.36.35.9.58,1.62.69l.9.11c.42.06.74.18.96.38.22.2.33.46.33.78,0,.42-.15.74-.44.98s-.69.36-1.2.36-.89-.1-1.19-.3c-.3-.2-.51-.5-.6-.89h-1.01c.04.43.17.81.4,1.12.23.31.55.54.96.71.41.16.89.25,1.44.25s1.01-.09,1.41-.27c.4-.18.71-.44.93-.77.22-.33.33-.72.33-1.18,0-.59-.18-1.07-.55-1.42-.36-.36-.9-.58-1.62-.69l-.9-.11c-.41-.06-.73-.19-.95-.39-.22-.2-.33-.46-.33-.78,0-.42.15-.75.46-.99Z"/>
      <path class="cls-1" d="M139.88,14.77c-.39-.18-.84-.27-1.37-.27h-2.79v7.56h1.05v-3.18h1.74c.53,0,.98-.09,1.37-.27.39-.18.69-.43.9-.76.21-.33.32-.71.32-1.15s-.11-.84-.32-1.17c-.21-.33-.51-.58-.9-.76ZM139.66,17.69c-.27.24-.63.35-1.1.35h-1.79v-2.67h1.79c.47,0,.84.12,1.1.35s.4.56.4.98-.13.74-.4.98Z"/>
      <path class="cls-1" d="M144.51,14.5l-2.21,7.56h1.03l.76-2.67h2.47l.76,2.67h1.09l-2.21-7.56h-1.7ZM144.34,18.51l.94-3.29h.09l.93,3.29h-1.97Z"/>
      <path class="cls-1" d="M153.03,15.24c.5,0,.9.16,1.2.47.3.32.5.78.59,1.4h.97c-.04-.59-.18-1.09-.4-1.5-.23-.41-.54-.72-.93-.93-.4-.21-.87-.32-1.41-.32-1.02,0-1.77.33-2.28.98-.5.65-.76,1.63-.76,2.94s.25,2.29.74,2.94c.49.65,1.22.98,2.19.98.53,0,.99-.1,1.38-.3.38-.2.69-.5.91-.88.22-.39.35-.86.39-1.42h-.97c-.08.57-.27,1-.56,1.29-.29.29-.67.44-1.16.44-.64,0-1.12-.25-1.42-.74-.3-.49-.46-1.26-.46-2.3s.16-1.81.48-2.3.82-.74,1.5-.74Z"/>
      <polygon class="cls-1" points="158.05 22.06 162.78 22.06 162.78 21.18 159.09 21.18 159.09 18.67 162.36 18.67 162.36 17.84 159.09 17.84 159.09 15.38 162.88 15.38 162.88 14.5 158.05 14.5 158.05 22.06"/>
      <path class="cls-1" d="M166.44,15.6c.31-.24.73-.36,1.26-.36.5,0,.9.12,1.21.35.31.24.51.58.61,1.03h.99c-.03-.48-.16-.88-.39-1.22-.24-.33-.56-.59-.97-.77-.41-.18-.89-.27-1.44-.27s-1.04.09-1.45.27-.73.44-.96.77-.34.73-.34,1.18c0,.6.18,1.07.55,1.43.36.35.9.58,1.62.69l.9.11c.42.06.74.18.96.38.22.2.33.46.33.78,0,.42-.15.74-.44.98s-.69.36-1.2.36-.89-.1-1.19-.3c-.3-.2-.51-.5-.6-.89h-1.01c.04.43.17.81.4,1.12.23.31.55.54.96.71.41.16.89.25,1.44.25s1.01-.09,1.41-.27c.4-.18.71-.44.93-.77.22-.33.33-.72.33-1.18,0-.59-.18-1.07-.55-1.42-.36-.36-.9-.58-1.62-.69l-.9-.11c-.41-.06-.73-.19-.95-.39-.22-.2-.33-.46-.33-.78,0-.42.15-.75.46-.99Z"/>
      <path class="cls-1" d="M174.97,20.51c-.27,0-.49.07-.64.21-.15.14-.23.34-.23.6s.08.46.23.6c.15.14.37.21.64.21s.49-.07.64-.21c.15-.14.23-.34.23-.6s-.08-.46-.23-.6c-.15-.14-.37-.21-.65-.21Z"/>
      <path class="cls-1" d="M188.65,15.6c.31-.24.73-.36,1.26-.36.5,0,.9.12,1.21.35.31.24.51.58.61,1.03h.99c-.03-.48-.16-.88-.39-1.22-.24-.33-.56-.59-.97-.77-.41-.18-.89-.27-1.44-.27s-1.04.09-1.45.27-.73.44-.96.77-.34.73-.34,1.18c0,.6.18,1.07.55,1.43.36.35.9.58,1.62.69l.9.11c.42.06.74.18.96.38.22.2.33.46.33.78,0,.42-.15.74-.44.98s-.69.36-1.2.36-.89-.1-1.19-.3c-.3-.2-.51-.5-.6-.89h-1.01c.04.43.17.81.4,1.12.23.31.55.54.96.71.41.16.89.25,1.44.25s1.01-.09,1.41-.27c.4-.18.71-.44.93-.77.22-.33.33-.72.33-1.18,0-.59-.18-1.07-.55-1.42-.36-.36-.9-.58-1.62-.69l-.9-.11c-.41-.06-.73-.19-.95-.39-.22-.2-.33-.46-.33-.78,0-.42.15-.75.46-.99Z"/>
      <polygon class="cls-1" points="197.34 17.66 197.25 17.94 197.15 17.94 197.06 17.66 195.15 14.5 194.01 14.5 196.65 18.79 196.65 22.06 197.7 22.06 197.7 18.79 200.33 14.5 199.27 14.5 197.34 17.66"/>
      <path class="cls-1" d="M203.45,15.6c.31-.24.73-.36,1.26-.36.5,0,.9.12,1.21.35.31.24.51.58.61,1.03h.99c-.03-.48-.16-.88-.39-1.22-.24-.33-.56-.59-.97-.77-.41-.18-.89-.27-1.44-.27s-1.04.09-1.45.27-.73.44-.96.77-.34.73-.34,1.18c0,.6.18,1.07.55,1.43.36.35.9.58,1.62.69l.9.11c.42.06.74.18.96.38.22.2.33.46.33.78,0,.42-.15.74-.44.98s-.69.36-1.2.36-.89-.1-1.19-.3c-.3-.2-.51-.5-.6-.89h-1.01c.04.43.17.81.4,1.12.23.31.55.54.96.71.41.16.89.25,1.44.25s1.01-.09,1.41-.27c.4-.18.71-.44.93-.77.22-.33.33-.72.33-1.18,0-.59-.18-1.07-.55-1.42-.36-.36-.9-.58-1.62-.69l-.9-.11c-.41-.06-.73-.19-.95-.39-.22-.2-.33-.46-.33-.78,0-.42.15-.75.46-.99Z"/>
      <polygon class="cls-1" points="208.96 15.38 211.45 15.38 211.45 22.06 212.5 22.06 212.5 15.38 214.99 15.38 214.99 14.5 208.96 14.5 208.96 15.38"/>
      <polygon class="cls-1" points="217.27 22.06 221.99 22.06 221.99 21.18 218.31 21.18 218.31 18.67 221.57 18.67 221.57 17.84 218.31 17.84 218.31 15.38 222.1 15.38 222.1 14.5 217.27 14.5 217.27 22.06"/>
      <polygon class="cls-1" points="226.86 18.92 226.76 18.92 225.61 14.5 223.93 14.5 223.93 22.06 224.88 22.06 224.88 17.44 224.85 15.16 224.96 15.16 226.08 19.47 227.49 19.47 228.6 15.16 228.71 15.16 228.68 17.44 228.68 22.06 229.64 22.06 229.64 14.5 228.01 14.5 226.86 18.92"/>
      <path class="cls-1" d="M233.06,15.6c.31-.24.73-.36,1.26-.36.5,0,.9.12,1.21.35.31.24.51.58.61,1.03h.99c-.03-.48-.16-.88-.39-1.22-.24-.33-.56-.59-.97-.77-.41-.18-.89-.27-1.44-.27s-1.04.09-1.45.27-.73.44-.96.77-.34.73-.34,1.18c0,.6.18,1.07.55,1.43.36.35.9.58,1.62.69l.9.11c.42.06.74.18.96.38.22.2.33.46.33.78,0,.42-.15.74-.44.98s-.69.36-1.2.36-.89-.1-1.19-.3c-.3-.2-.51-.5-.6-.89h-1.01c.04.43.17.81.4,1.12.23.31.55.54.96.71.41.16.89.25,1.44.25s1.01-.09,1.41-.27c.4-.18.71-.44.93-.77.22-.33.33-.72.33-1.18,0-.59-.18-1.07-.55-1.42-.36-.36-.9-.58-1.62-.69l-.9-.11c-.41-.06-.73-.19-.95-.39-.22-.2-.33-.46-.33-.78,0-.42.15-.75.46-.99Z"/>
      <path class="cls-1" d="M241.58,20.51c-.27,0-.49.07-.64.21-.15.14-.23.34-.23.6s.08.46.23.6c.15.14.37.21.64.21s.49-.07.64-.21c.15-.14.23-.34.23-.6s-.08-.46-.23-.6c-.15-.14-.37-.21-.65-.21Z"/>
      <g>
        <path class="cls-1" d="M40.61.53H10.27C4.6.53,0,5.13,0,10.79v.61c0,5.67,4.6,10.26,10.26,10.26h30.34c5.67,0,10.26-4.6,10.26-10.26v-.62c0-5.67-4.6-10.26-10.26-10.26ZM49.57,11.41c0,4.95-4.01,8.96-8.96,8.96h-12.36c-1.12,0-2.22-.29-3.17-.89-.72-.45-1.37-.99-1.95-1.61-1.44-1.54-3.89-1.54-5.33,0-.58.63-1.25,1.17-1.98,1.63-.78.49-2.18.87-3.1.87h-2.47c-4.95,0-8.96-4.01-8.96-8.96v-.61C1.3,5.85,5.32,1.84,10.26,1.84h2.59c.89,0,1.77.19,2.55.62.91.51,1.74,1.15,2.44,1.92,1.4,1.52,3.86,1.52,5.25,0,.71-.77,1.54-1.41,2.46-1.92.78-.43,1.67-.61,2.56-.61h12.49c4.95,0,8.96,4.01,8.96,8.96v.61Z"/>
        <polygon class="cls-1" points="14.62 5.86 12.93 5.86 8.89 10.76 8.89 5.86 7.45 5.86 7.45 16.34 8.89 16.34 8.89 11.78 12.69 16.34 14.47 16.34 10.19 11.22 14.62 5.86"/>
        <path class="cls-1" d="M26.49,16.34V5.86h3.13c1.54,0,2.71.44,3.49,1.32s1.17,2.19,1.17,3.93-.39,3.04-1.17,3.92c-.78.88-1.94,1.32-3.49,1.32h-3.13ZM27.94,15.13h1.68c1.07,0,1.87-.33,2.41-1,.54-.67.81-1.68.81-3.02s-.27-2.36-.81-3.03c-.54-.66-1.34-1-2.41-1h-1.68v8.05Z"/>
        <path class="cls-1" d="M40.35,16.54c-1.35,0-2.36-.45-3.04-1.36-.68-.9-1.02-2.27-1.02-4.08s.35-3.18,1.05-4.08c.7-.9,1.75-1.36,3.16-1.36.76,0,1.41.15,1.96.44.55.29.98.72,1.3,1.29.32.57.5,1.26.56,2.08h-1.34c-.13-.86-.4-1.5-.82-1.94-.42-.44-.97-.65-1.66-.65-.94,0-1.64.34-2.08,1.03-.45.69-.67,1.75-.67,3.19s.21,2.51.63,3.19c.42.69,1.08,1.03,1.97,1.03.67,0,1.2-.2,1.6-.61.4-.41.66-1,.77-1.79h1.34c-.06.78-.24,1.44-.55,1.97-.31.54-.73.95-1.26,1.23-.54.28-1.17.42-1.91.42Z"/>
      </g>
    </g>
  </g>
</svg>