<?xml version="1.0" encoding="UTF-8"?>
<svg id="Layer_2" data-name="Layer 2" xmlns="http://www.w3.org/2000/svg" viewBox="0 0 33.27 33.27">
  <defs>
    <style>
      .cls-1 {
        fill: #2f3133;
      }
    </style>
  </defs>
  <g id="Layer_1-2" data-name="Layer 1">
    <g>
      <path class="cls-1" d="M16.64,3.2c-.77,0-.96.14-1.12.91-.08.42-.13.87-.13,1.43s.04,1.01.13,1.43c.16.76.35.91,1.12.91s.96-.14,1.12-.91c.08-.42.13-.87.13-1.43s-.04-1.01-.13-1.43c-.16-.76-.35-.91-1.12-.91Z"/>
      <path class="cls-1" d="M27.73,22.18h0c3.06,0,5.55-2.48,5.55-5.55h0c0-3.06-2.48-5.55-5.55-5.55h0c-3.06,0-5.55-2.48-5.55-5.55h0c0-3.06-2.48-5.55-5.55-5.55h0c-3.06,0-5.55,2.48-5.55,5.55h0c0,3.06-2.48,5.55-5.55,5.55h0c-3.06,0-5.55,2.48-5.55,5.55h0c0,3.06,2.48,5.55,5.55,5.55h0c3.06,0,5.55,2.48,5.55,5.55h0c0,3.06,2.48,5.55,5.55,5.55h0c3.06,0,5.55-2.48,5.55-5.55h0c0-3.06,2.48-5.55,5.55-5.55ZM18.54,30.65h-3.68v-1.01c1.67-1.45,2.12-1.87,2.51-2.36.3-.37.36-.54.36-.96,0-.73-.2-.89-1.15-.89-.88,0-1.09.14-1.15.82h-.7c.08-1.2.42-1.46,1.85-1.46s1.82.28,1.82,1.54c0,.59-.09.84-.54,1.37-.41.48-.81.89-2.31,2.21v.09h2.98v.64ZM14.88,3.83c.24-1.03.54-1.26,1.76-1.26s1.52.22,1.76,1.26c.12.5.19,1.01.19,1.71s-.07,1.21-.19,1.71c-.25,1.04-.55,1.26-1.76,1.26s-1.52-.22-1.76-1.26c-.12-.5-.19-1.01-.19-1.71s.07-1.21.19-1.71ZM17.44,11.15c2.76.39,4.74,2.89,4.74,5.68h0c0,2.01-1.11,3.9-2.93,4.75-4.13,1.92-8.16-1.04-8.16-4.94h0c0-3.33,2.93-5.97,6.35-5.49ZM7.45,19.56h-3.68v-1.01c1.67-1.45,2.12-1.87,2.51-2.36.3-.37.36-.54.36-.96,0-.73-.2-.89-1.14-.89-.88,0-1.09.14-1.15.82h-.7c.08-1.2.42-1.46,1.85-1.46s1.82.28,1.82,1.54c0,.59-.09.84-.54,1.37-.41.48-.81.89-2.31,2.21v.09h2.98v.64ZM27.48,19.55c-.65,0-1.31-.18-1.54-.29v-.75c.24.14,1.09.4,1.65.4,1.03,0,1.25-.22,1.25-1.25,0-.88-.18-1.09-.98-1.2-.43-.06-1.31,0-1.74.1l.26-2.84h2.88v.61l-2.3.02-.14,1.51c.14-.03.59-.08,1.03-.04,1.36.12,1.65.46,1.65,1.83,0,1.56-.36,1.9-2.03,1.9Z"/>
    </g>
  </g>
</svg>